<svg width="14" height="16" viewBox="0 0 14 16" fill="none" xmlns="http://www.w3.org/2000/svg">
<path d="M6.61611 15.3153C6.83661 15.4331 7.11336 15.4323 7.33386 15.3146C13.3429 12.0866 13.7696 5.77984 13.7644 3.98659C13.7638 3.84246 13.7212 3.70163 13.6418 3.58134C13.5624 3.46105 13.4497 3.36652 13.3174 3.30934L7.27986 0.634836C7.18378 0.592483 7.07991 0.570672 6.97491 0.570801C6.86991 0.570931 6.76609 0.592997 6.67011 0.635586L0.674613 3.31009C0.54426 3.3673 0.433103 3.46078 0.354383 3.57939C0.275664 3.698 0.232701 3.83675 0.230613 3.97909C0.205113 5.76334 0.564363 12.0836 6.61611 15.3153ZM4.50561 6.71959L6.22536 8.43934L9.44511 5.21959L10.5056 6.28009L6.22536 10.5603L3.44511 7.78009L4.50561 6.71959Z" fill="#83CC1C"/>
</svg>
