<svg width="65" height="65" viewBox="0 0 65 65" fill="none" xmlns="http://www.w3.org/2000/svg">
<g clip-path="url(#clip0_1_7461)">
<circle cx="32.5" cy="32.5" r="30.5" fill="#3DC051" stroke="white" stroke-width="4"/>
<path d="M24.2922 15.7852C25.8266 14.6231 27.6998 13.9964 29.6246 14.001C30.2893 13.9861 30.9471 14.1391 31.537 14.4458C32.1269 14.7526 32.6299 15.2032 32.9995 15.7559C33.3691 15.2032 33.8721 14.7526 34.462 14.4458C35.0519 14.1391 35.7097 13.9861 36.3744 14.001C38.2992 13.9964 40.1724 14.6231 41.7068 15.7852C42.888 16.7032 43.7992 17.9744 44.1209 19.5111C44.8589 19.5673 45.5339 19.8733 46.1009 20.3346C46.9604 21.032 47.5858 22.0783 47.9796 23.1852C48.5961 24.9064 48.7626 27.1001 48.1236 28.9676C48.2856 29.0441 48.4453 29.1341 48.6006 29.2376C49.2193 29.6493 49.6895 30.2388 50.036 30.934C50.7178 32.2952 50.999 34.1942 50.999 36.5004C50.999 39.0676 50.0203 40.791 48.7783 41.8552C48.0915 42.4441 47.281 42.8709 46.4069 43.1039C46.1819 44.3594 45.5519 45.8129 44.5642 47.0458C43.2817 48.6545 41.2928 50 38.6243 50C36.5094 50 34.8265 48.83 33.733 47.6826C33.4716 47.4086 33.2266 47.1193 32.9995 46.8163C32.7724 47.1194 32.5275 47.4086 32.266 47.6826C31.1726 48.83 29.4918 50 27.3747 50C24.7062 50 22.7195 48.6545 21.4348 47.0458C20.5118 45.8996 19.8796 44.5472 19.5921 43.1039C18.718 42.8709 17.9075 42.4441 17.2207 41.8552C15.9787 40.791 15 39.0653 15 36.5004C15 34.1942 15.2835 32.293 15.963 30.934C16.285 30.2522 16.7799 29.6666 17.3984 29.2353C17.5504 29.1347 17.7099 29.046 17.8754 28.9698C17.2364 27.0979 17.4029 24.9064 18.0194 23.1852C18.4132 22.0783 19.0386 21.032 19.8981 20.3346C20.4651 19.8733 21.1401 19.5696 21.8781 19.5111C22.2021 17.9744 23.1133 16.7032 24.2945 15.7852H24.2922ZM31.8745 19.6258V19.6033L31.87 19.4908C31.8369 18.9043 31.7202 18.3255 31.5235 17.7719C31.3835 17.354 31.1451 16.9759 30.8283 16.6694C30.496 16.38 30.0648 16.2301 29.6246 16.2509C28.2003 16.246 26.8132 16.7058 25.6737 17.5604C24.6297 18.3726 23.9998 19.4728 23.9998 20.7508C23.9996 20.929 23.9572 21.1045 23.8759 21.2631C23.7946 21.4216 23.6769 21.5586 23.5323 21.6627C23.3878 21.7669 23.2205 21.8352 23.0444 21.8621C22.8683 21.8889 22.6883 21.8736 22.5193 21.8173C22.0963 21.6778 21.7183 21.7565 21.3156 22.0805C20.8746 22.4405 20.4448 23.0795 20.1366 23.9412C19.5089 25.7007 19.5741 27.8314 20.4358 29.1273C20.5589 29.3119 20.6247 29.5287 20.6248 29.7506H22.3123C23.6549 29.7506 24.9425 30.2839 25.8919 31.2333C26.8413 32.1827 27.3747 33.4703 27.3747 34.8129V35.5666C28.1253 35.832 28.7579 36.3542 29.1607 37.0409C29.5635 37.7276 29.7106 38.5346 29.576 39.3192C29.4414 40.1039 29.0337 40.8157 28.425 41.3289C27.8163 41.842 27.0458 42.1234 26.2497 42.1234C25.4536 42.1234 24.6831 41.842 24.0744 41.3289C23.4657 40.8157 23.058 40.1039 22.9234 39.3192C22.7888 38.5346 22.9359 37.7276 23.3387 37.0409C23.7415 36.3542 24.3741 35.832 25.1247 35.5666V34.8129C25.1247 33.2605 23.8648 32.0005 22.3123 32.0005H18.3749C18.2404 32.0003 18.107 31.9759 17.9812 31.9285L17.9744 31.942C17.5289 32.8307 17.2499 34.3067 17.2499 36.5004C17.2499 38.4331 17.9587 39.522 18.6854 40.1453C19.4661 40.8158 20.3324 41.0002 20.6248 41.0002C20.9232 41.0002 21.2093 41.1188 21.4203 41.3297C21.6313 41.5407 21.7498 41.8269 21.7498 42.1252C21.7498 42.9532 22.1998 44.3999 23.1898 45.6419C24.155 46.8456 25.5432 47.7501 27.3747 47.7501C28.6346 47.7501 29.7641 47.0458 30.6371 46.1301C31.0668 45.6801 31.402 45.2144 31.6203 44.8319C31.7196 44.6623 31.8047 44.4847 31.8745 44.3009V26.3757H29.4334C29.168 27.1262 28.6458 27.7589 27.9591 28.1617C27.2724 28.5645 26.4654 28.7116 25.6808 28.577C24.8961 28.4424 24.1843 28.0347 23.6711 27.426C23.158 26.8173 22.8766 26.0468 22.8766 25.2507C22.8766 24.4546 23.158 23.6841 23.6711 23.0754C24.1843 22.4667 24.8961 22.059 25.6808 21.9244C26.4654 21.7898 27.2724 21.9369 27.9591 22.3397C28.6458 22.7425 29.168 23.3751 29.4334 24.1257H31.8745V19.6258ZM34.1245 42.123V44.2987C34.1943 44.4824 34.2794 44.66 34.3787 44.8296C34.5992 45.2121 34.9322 45.6779 35.3597 46.1279C36.2349 47.0436 37.3666 47.7478 38.6243 47.7478C40.4558 47.7478 41.844 46.8433 42.8092 45.6396C43.7992 44.3977 44.2492 42.9509 44.2492 42.123C44.2492 41.8246 44.3677 41.5385 44.5787 41.3275C44.7897 41.1165 45.0758 40.998 45.3742 40.998C45.6667 40.998 46.5329 40.8135 47.3136 40.143C48.0403 39.5198 48.7491 38.4308 48.7491 36.4981C48.7491 34.3044 48.4678 32.8307 48.0246 31.9397C47.8763 31.608 47.6436 31.3209 47.3496 31.1073C47.0963 30.9453 46.7996 30.8645 46.4991 30.8755C46.2956 30.8754 46.096 30.8201 45.9214 30.7155C45.7469 30.6109 45.604 30.4609 45.5079 30.2815C45.4119 30.1021 45.3663 29.9001 45.376 29.6968C45.3857 29.4935 45.4504 29.2967 45.5632 29.1273C46.4271 27.8314 46.4901 25.7007 45.8624 23.9412C45.5542 23.0795 45.1244 22.4383 44.6834 22.0805C44.2807 21.7565 43.9027 21.6755 43.4797 21.8173C43.3107 21.8736 43.1307 21.8889 42.9546 21.8621C42.7785 21.8352 42.6112 21.7669 42.4667 21.6627C42.3221 21.5586 42.2044 21.4216 42.1231 21.2631C42.0418 21.1045 41.9994 20.929 41.9993 20.7508C41.9993 19.4728 41.3693 18.3726 40.323 17.5604C39.1842 16.7062 37.798 16.2465 36.3744 16.2509C35.9342 16.2301 35.503 16.38 35.1707 16.6694C34.853 16.9755 34.6137 17.3537 34.4732 17.7719C34.259 18.3596 34.1412 18.978 34.1245 19.6033V39.8753H35.8119C37.3644 39.8753 38.6243 38.6153 38.6243 37.0629V32.9342C37.8738 32.6688 37.2411 32.1467 36.8383 31.46C36.4355 30.7733 36.2884 29.9663 36.423 29.1816C36.5576 28.397 36.9653 27.6852 37.574 27.172C38.1827 26.6589 38.9532 26.3774 39.7493 26.3774C40.5454 26.3774 41.3159 26.6589 41.9246 27.172C42.5333 27.6852 42.941 28.397 43.0756 29.1816C43.2102 29.9663 43.0631 30.7733 42.6603 31.46C42.2575 32.1467 41.6249 32.6688 40.8743 32.9342V37.0629C40.8743 38.4055 40.3409 39.6931 39.3916 40.6425C38.4422 41.5919 37.1545 42.1252 35.8119 42.1252H34.1245V42.123ZM25.1247 25.2507C25.1247 25.549 25.2432 25.8352 25.4542 26.0462C25.6652 26.2571 25.9513 26.3757 26.2497 26.3757C26.548 26.3757 26.8342 26.2571 27.0452 26.0462C27.2561 25.8352 27.3747 25.549 27.3747 25.2507C27.3747 24.9523 27.2561 24.6662 27.0452 24.4552C26.8342 24.2442 26.548 24.1257 26.2497 24.1257C25.9513 24.1257 25.6652 24.2442 25.4542 24.4552C25.2432 24.6662 25.1247 24.9523 25.1247 25.2507ZM39.7493 30.8755C40.0477 30.8755 40.3338 30.757 40.5448 30.546C40.7558 30.3351 40.8743 30.0489 40.8743 29.7506C40.8743 29.4522 40.7558 29.1661 40.5448 28.9551C40.3338 28.7441 40.0477 28.6256 39.7493 28.6256C39.451 28.6256 39.1648 28.7441 38.9538 28.9551C38.7429 29.1661 38.6243 29.4522 38.6243 29.7506C38.6243 30.0489 38.7429 30.3351 38.9538 30.546C39.1648 30.757 39.451 30.8755 39.7493 30.8755ZM26.2497 37.6253C25.9513 37.6253 25.6652 37.7439 25.4542 37.9548C25.2432 38.1658 25.1247 38.4519 25.1247 38.7503C25.1247 39.0487 25.2432 39.3348 25.4542 39.5458C25.6652 39.7568 25.9513 39.8753 26.2497 39.8753C26.548 39.8753 26.8342 39.7568 27.0452 39.5458C27.2561 39.3348 27.3747 39.0487 27.3747 38.7503C27.3747 38.4519 27.2561 38.1658 27.0452 37.9548C26.8342 37.7439 26.548 37.6253 26.2497 37.6253Z" fill="white"/>
</g>
<defs>
<clipPath id="clip0_1_7461">
<rect width="65" height="65" fill="white"/>
</clipPath>
</defs>
</svg>
