<svg width="65" height="65" viewBox="0 0 65 65" fill="none" xmlns="http://www.w3.org/2000/svg">
<g clip-path="url(#clip0_1_7452)">
<circle cx="32.5" cy="32.5" r="30.5" fill="#3DC051" stroke="white" stroke-width="4"/>
<path d="M28.5006 14.624C28.7202 14.8909 28.8548 15.2175 28.8868 15.5617C28.9189 15.9058 28.8471 16.2517 28.6806 16.5546C27.3797 18.943 26.7003 21.6202 26.705 24.3399C26.705 33.3875 34.0808 40.7138 43.1712 40.7138C44.357 40.7138 45.5113 40.5901 46.6206 40.3538C46.9606 40.2802 47.3148 40.3084 47.639 40.4348C47.9631 40.5613 48.2428 40.7804 48.4431 41.0649C48.6546 41.3606 48.7624 41.718 48.7498 42.0814C48.7372 42.4448 48.6049 42.7938 48.3734 43.0742C46.6086 45.242 44.3823 46.9887 41.8567 48.1868C39.3312 49.385 36.5701 50.0044 33.7748 50C23.4018 50 15 41.6431 15 31.3467C15 23.5974 19.7567 16.9506 26.5295 14.1335C26.8669 13.9909 27.2414 13.9616 27.5968 14.0501C27.9522 14.1385 28.2694 14.3399 28.5006 14.624ZM25.931 16.9483C23.3267 18.3453 21.1496 20.4217 19.631 22.9569C18.1124 25.4921 17.309 28.3914 17.3063 31.3467C17.3063 40.3921 24.6844 47.7184 33.7748 47.7184C35.9516 47.7222 38.1076 47.2941 40.1179 46.4591C42.1282 45.6241 43.953 44.3986 45.4865 42.8537C44.7282 42.9482 43.9565 42.9954 43.1712 42.9954C32.7982 42.9954 24.3986 34.6386 24.3986 24.3422C24.3986 21.7163 24.9432 19.2164 25.931 16.9483Z" fill="white"/>
<path d="M39.2876 21.0816C39.3198 20.9842 39.382 20.8994 39.4652 20.8393C39.5484 20.7792 39.6484 20.7469 39.7511 20.7469C39.8537 20.7469 39.9538 20.7792 40.037 20.8393C40.1202 20.8994 40.1823 20.9842 40.2146 21.0816L41.0854 23.6962C41.4746 24.8618 42.3882 25.7753 43.5537 26.1646L46.1683 27.0354C46.2658 27.0677 46.3506 27.1298 46.4107 27.213C46.4708 27.2962 46.5031 27.3963 46.5031 27.4989C46.5031 27.6015 46.4708 27.7016 46.4107 27.7848C46.3506 27.868 46.2658 27.9302 46.1683 27.9624L43.5537 28.8332C42.9789 29.0247 42.4566 29.3475 42.0281 29.7759C41.5997 30.2044 41.2769 30.7267 41.0854 31.3016L40.2146 33.9162C40.1823 34.0136 40.1202 34.0984 40.037 34.1585C39.9538 34.2186 39.8537 34.251 39.7511 34.251C39.6484 34.251 39.5484 34.2186 39.4652 34.1585C39.382 34.0984 39.3198 34.0136 39.2876 33.9162L38.4168 31.3016C38.2252 30.7267 37.9025 30.2044 37.474 29.7759C37.0456 29.3475 36.5233 29.0247 35.9484 28.8332L33.3338 27.9624C33.2364 27.9302 33.1516 27.868 33.0915 27.7848C33.0314 27.7016 32.999 27.6015 32.999 27.4989C32.999 27.3963 33.0314 27.2962 33.0915 27.213C33.1516 27.1298 33.2364 27.0677 33.3338 27.0354L35.9484 26.1646C36.5233 25.9731 37.0456 25.6503 37.474 25.2219C37.9025 24.7934 38.2252 24.2711 38.4168 23.6962L39.2876 21.0816ZM46.1931 14.2211C46.2153 14.157 46.2569 14.1015 46.3122 14.0622C46.3674 14.0228 46.4335 14.0017 46.5014 14.0017C46.5692 14.0017 46.6353 14.0228 46.6905 14.0622C46.7458 14.1015 46.7874 14.157 46.8096 14.2211L47.3901 15.9627C47.6489 16.7412 48.2587 17.351 49.0372 17.6097L50.7788 18.1903C50.8429 18.2125 50.8984 18.2541 50.9377 18.3093C50.977 18.3646 50.9982 18.4307 50.9982 18.4985C50.9982 18.5663 50.977 18.6325 50.9377 18.6877C50.8984 18.743 50.8429 18.7846 50.7788 18.8068L49.0372 19.3873C48.6535 19.5149 48.3049 19.7303 48.019 20.0162C47.7331 20.3021 47.5178 20.6507 47.3901 21.0344L46.8096 22.776C46.7874 22.84 46.7458 22.8956 46.6905 22.9349C46.6353 22.9742 46.5692 22.9953 46.5014 22.9953C46.4335 22.9953 46.3674 22.9742 46.3122 22.9349C46.2569 22.8956 46.2153 22.84 46.1931 22.776L45.6126 21.0344C45.4849 20.6507 45.2696 20.3021 44.9837 20.0162C44.6978 19.7303 44.3492 19.5149 43.9655 19.3873L42.2239 18.8068C42.1599 18.7846 42.1043 18.743 42.065 18.6877C42.0257 18.6325 42.0045 18.5663 42.0045 18.4985C42.0045 18.4307 42.0257 18.3646 42.065 18.3093C42.1043 18.2541 42.1599 18.2125 42.2239 18.1903L43.9655 17.6097C44.744 17.351 45.3538 16.7412 45.6126 15.9627L46.1931 14.2233V14.2211Z" fill="white"/>
</g>
<defs>
<clipPath id="clip0_1_7452">
<rect width="65" height="65" fill="white"/>
</clipPath>
</defs>
</svg>
