<svg width="65" height="65" viewBox="0 0 65 65" fill="none" xmlns="http://www.w3.org/2000/svg">
<g clip-path="url(#clip0_1_7477)">
<circle cx="32.5" cy="32.5" r="30.5" fill="#3DC051" stroke="white" stroke-width="4"/>
<path d="M32.5 50C39.9115 50 46 44.1266 46 36.5882C46 34.7378 45.9055 32.7542 44.8795 29.6708C43.8535 26.5874 43.6474 26.1896 42.5629 24.2852C42.0994 28.1705 39.6199 29.7905 38.9899 30.2747C38.9899 29.7707 37.4905 24.2024 35.2162 20.8697C32.9833 17.6 29.9467 15.4553 28.1665 14C28.1665 16.763 27.3898 20.8706 26.2765 22.964C25.1641 25.0565 24.9553 25.133 23.5648 26.69C22.1752 28.247 21.5371 28.7285 20.3743 30.6185C19.2124 32.5085 19 35.0258 19 36.8762C19 44.4146 25.0885 50 32.5 50Z" stroke="white" stroke-width="3" stroke-linejoin="round"/>
</g>
<defs>
<clipPath id="clip0_1_7477">
<rect width="65" height="65" fill="white"/>
</clipPath>
</defs>
</svg>
