<svg width="65" height="65" viewBox="0 0 65 65" fill="none" xmlns="http://www.w3.org/2000/svg">
<g clip-path="url(#clip0_1_7468)">
<circle cx="32.5" cy="32.5" r="30.5" fill="#3DC051" stroke="white" stroke-width="4"/>
<path d="M19.166 33.8955C19.0273 33.6023 18.8985 33.3051 18.7808 33.0042C18.2945 31.7605 18 30.4531 18 29.1C18 24.6265 21.6631 21 26.1818 21C29.0277 21 31.5342 22.4384 33 24.621C34.4658 22.4384 36.9723 21 39.8182 21C44.3369 21 48 24.6265 48 29.1C48 34.9235 42.5455 39.9 39.8182 42.6C38 44.4 35.7273 46.2 33 48C30.2727 46.2 28 44.4 26.1818 42.6C25.9072 42.3282 25.6051 42.0333 25.2836 41.7168" stroke="white" stroke-width="3" stroke-linecap="round" stroke-linejoin="round"/>
<path d="M21 38.98L29.3354 30.7796L34.1836 35.7793L41.4464 28.364" stroke="white" stroke-width="3" stroke-linecap="round" stroke-linejoin="round"/>
</g>
<defs>
<clipPath id="clip0_1_7468">
<rect width="65" height="65" fill="white"/>
</clipPath>
</defs>
</svg>
