<svg width="65" height="65" viewBox="0 0 65 65" fill="none" xmlns="http://www.w3.org/2000/svg">
<g clip-path="url(#clip0_1_7445)">
<circle cx="32.5" cy="32.5" r="30.5" fill="#3DC051" stroke="white" stroke-width="4"/>
<path fill-rule="evenodd" clip-rule="evenodd" d="M43 17.5C43 16.5717 43.3688 15.6815 44.0251 15.0251C44.6815 14.3687 45.5717 14 46.5 14C47.4283 14 48.3185 14.3687 48.9749 15.0251C49.6312 15.6815 50 16.5717 50 17.5V23.5C50 25.083 48.95 26.42 47.508 26.853C47.516 27.907 47.529 28.927 47.543 29.913C47.593 33.635 47.635 36.863 47.356 39.517C46.956 43.321 45.865 46.312 42.9 48.059C39.533 50.044 34.695 50.643 30.729 50.144C28.739 49.893 26.873 49.354 25.474 48.5C24.459 47.88 23.618 47.04 23.23 45.977C21.145 45.884 19.07 45.505 17.43 44.825C15.665 44.093 14 42.825 14 40.84V21.122H14.003C14.001 21.0814 14 21.0407 14 21C14 18.239 18.477 16 24 16C29.523 16 34 18.239 34 21C34 21.04 33.999 21.082 33.997 21.122H34V27.071C34.4187 27.1306 34.8311 27.2284 35.232 27.363C36.7235 27.8662 38.002 28.8571 38.8612 30.176C39.7204 31.4949 40.1102 33.0648 39.9677 34.6325C39.8252 36.2001 39.1588 37.674 38.0759 38.8164C36.993 39.9587 35.5568 40.703 33.999 40.929C33.953 42.944 32.342 44.219 30.565 44.943C29.116 45.533 27.335 45.863 25.511 45.965C25.752 46.251 26.083 46.528 26.517 46.793C27.59 47.45 29.152 47.929 30.979 48.159C34.647 48.621 39.005 48.033 41.884 46.336C44.027 45.074 44.99 42.889 45.367 39.308C45.633 36.778 45.593 33.735 45.544 30.084V30.083C45.5286 29.0077 45.5163 27.9324 45.507 26.857C44.783 26.6426 44.1477 26.1999 43.6959 25.5949C43.2441 24.9899 43 24.2551 43 23.5V17.5ZM30.177 22.747C31.774 21.948 32 21.215 32 21C32 20.785 31.774 20.052 30.177 19.253C28.699 18.515 26.518 18 24 18C21.482 18 19.3 18.515 17.823 19.253C16.226 20.052 16 20.785 16 21C16 21.215 16.226 21.948 17.823 22.747C19.301 23.485 21.482 24 24 24C26.518 24 28.7 23.485 30.177 22.747ZM24 26C27.271 26 30.175 25.215 32 24V27.07C31.5813 27.1299 31.1689 27.228 30.768 27.363C29.2765 27.8659 27.998 28.8566 27.1386 30.1753C26.2792 31.494 25.8892 33.0637 26.0313 34.6312C26.1734 36.1988 26.8395 37.6727 27.922 38.8153C29.0045 39.9579 30.4404 40.7025 31.998 40.929C31.953 41.707 31.324 42.474 29.81 43.09C28.286 43.711 26.179 44.023 24.011 43.999C23.7041 43.9954 23.3974 43.9851 23.091 43.968V25.98C23.391 25.993 23.694 26 24 26V26ZM33 29.5L31.5 34.5L33 36.5L34.5 34.5L33 29.5Z" fill="white"/>
</g>
<defs>
<clipPath id="clip0_1_7445">
<rect width="65" height="65" fill="white"/>
</clipPath>
</defs>
</svg>
