<svg width="65" height="65" viewBox="0 0 65 65" fill="none" xmlns="http://www.w3.org/2000/svg">
<g clip-path="url(#clip0_1_7484)">
<circle cx="32.5" cy="32.5" r="30.5" fill="#3DC051" stroke="white" stroke-width="4"/>
<path d="M17 31.5V39.9375H41.1875V31.5H17ZM38.9375 37.6875H19.25V33.75H38.9375V37.6875ZM42.875 31.5H45.125V39.9375H42.875V31.5ZM46.8125 31.5H49.0625V39.9375H46.8125V31.5ZM42.9754 26.8102C42.7057 26.4032 42.5757 25.9196 42.6051 25.4322C42.6346 24.9449 42.8218 24.4804 43.1385 24.1089C43.7933 23.3474 44.1733 22.3881 44.2177 21.3847C44.262 20.3814 43.9681 19.3923 43.3831 18.576L42.9718 18H40.4L40.272 18.0914L41.5522 19.8837C41.8441 20.291 41.9908 20.7846 41.9686 21.2852C41.9465 21.7858 41.7569 22.2645 41.4301 22.6445C40.7955 23.3891 40.4203 24.32 40.3613 25.2966C40.3023 26.2732 40.5628 27.2425 41.1033 28.0581L41.5229 28.6875H44.2271L42.9754 26.8102ZM48.0379 26.8102C47.7682 26.4032 47.6382 25.9196 47.6676 25.4322C47.6971 24.9449 47.8843 24.4804 48.201 24.1089C48.8558 23.3474 49.2358 22.3881 49.2802 21.3847C49.3245 20.3814 49.0306 19.3923 48.4456 18.576L48.0343 18H45.4625L45.3345 18.0914L46.6147 19.8837C46.9066 20.291 47.0533 20.7846 47.0311 21.2852C47.009 21.7858 46.8194 22.2645 46.4926 22.6445C45.858 23.3891 45.4828 24.32 45.4238 25.2966C45.3648 26.2732 45.6253 27.2425 46.1658 28.0581L46.5854 28.6875H49.2896L48.0379 26.8102Z" fill="white"/>
</g>
<defs>
<clipPath id="clip0_1_7484">
<rect width="65" height="65" fill="white"/>
</clipPath>
</defs>
</svg>
