<svg width="90" height="90" viewBox="0 0 90 90" fill="none" xmlns="http://www.w3.org/2000/svg">
<path fill-rule="evenodd" clip-rule="evenodd" d="M47.9336 0.76739C46.1102 -0.25547 43.8859 -0.255472 42.0625 0.767388L35.6444 4.36781C34.7698 4.85848 33.786 5.12207 32.7832 5.13449L25.4248 5.22564C23.3344 5.25153 21.4081 6.36368 20.3405 8.16115L16.5822 14.4886C16.0701 15.3508 15.35 16.0709 14.4878 16.5831L8.16059 20.3415C6.36323 21.4092 5.25116 23.3354 5.22527 25.4258L5.13413 32.785C5.12171 33.7877 4.85815 34.7713 4.36755 35.646L0.767037 42.0648C-0.25568 43.8881 -0.255678 46.1122 0.767039 47.9355L4.36755 54.3543C4.85815 55.2289 5.12171 56.2125 5.13413 57.2153L5.22527 64.5745C5.25116 66.6649 6.36323 68.5911 8.16059 69.6587L14.4878 73.4171C15.35 73.9293 16.0701 74.6494 16.5822 75.5117L20.3405 81.8391C21.4081 83.6366 23.3344 84.7487 25.4248 84.7746L32.7832 84.8658C33.786 84.8782 34.7698 85.1418 35.6444 85.6324L42.0625 89.2329C43.8859 90.2557 46.1102 90.2557 47.9336 89.2329L54.3517 85.6324C55.2264 85.1418 56.2101 84.8782 57.2129 84.8658L64.5713 84.7746C66.6618 84.7487 68.588 83.6366 69.6556 81.8391L73.4139 75.5117C73.926 74.6494 74.6461 73.9293 75.5083 73.4171L81.8355 69.6587C83.6329 68.5911 84.745 66.6649 84.7708 64.5745L84.862 57.2153C84.8744 56.2126 85.138 55.2289 85.6286 54.3543L89.2291 47.9354C90.2518 46.1122 90.2518 43.8881 89.2291 42.0648L85.6286 35.646C85.138 34.7713 84.8744 33.7877 84.862 32.785L84.7708 25.4258C84.745 23.3354 83.6329 21.4092 81.8355 20.3415L75.5083 16.5831C74.6461 16.0709 73.926 15.3508 73.4139 14.4886L69.6556 8.16115C68.588 6.36368 66.6618 5.25153 64.5713 5.22564L57.2129 5.13449C56.2101 5.12207 55.2264 4.85848 54.3517 4.36781L47.9336 0.76739ZM44.9979 78.6449C63.5787 78.6449 78.6415 63.5816 78.6415 45C78.6415 26.4184 63.5787 11.355 44.9979 11.355C26.4171 11.355 11.3544 26.4184 11.3544 45C11.3544 63.5816 26.4171 78.6449 44.9979 78.6449Z" fill="url(#paint0_linear_1_8050)"/>
<ellipse cx="44.998" cy="45.0003" rx="31.1967" ry="31.1981" fill="url(#paint1_linear_1_8050)"/>
<path d="M27.3208 36.5504C27.3208 33.7259 27.9373 31.6327 29.1702 30.2706C30.4175 28.9086 32.1021 28.2275 34.2239 28.2275C36.4175 28.2275 38.1307 28.9086 39.3637 30.2706C40.6109 31.6183 41.2346 33.7116 41.2346 36.5504C41.2346 39.3748 40.6109 41.4681 39.3637 42.8301C38.1307 44.1922 36.4533 44.8732 34.3315 44.8732C32.1379 44.8732 30.4175 44.1993 29.1702 42.8516C27.9373 41.4896 27.3208 39.3892 27.3208 36.5504ZM32.0304 36.5074C32.0304 38.5576 32.267 39.934 32.7401 40.6365C33.0985 41.1527 33.5931 41.4107 34.2239 41.4107C34.8691 41.4107 35.3709 41.1527 35.7293 40.6365C36.1881 39.934 36.4175 38.5576 36.4175 36.5074C36.4175 34.4571 36.1881 33.0879 35.7293 32.3997C35.3709 31.8692 34.8691 31.604 34.2239 31.604C33.5931 31.604 33.0985 31.8621 32.7401 32.3782C32.267 33.0807 32.0304 34.4571 32.0304 36.5074ZM38.826 61.4973H34.353L51.1484 28.2275H55.4925L38.826 61.4973ZM48.5893 53.2175C48.5893 50.3931 49.2058 48.2998 50.4388 46.9378C51.6861 45.5757 53.385 44.8947 55.5355 44.8947C57.7003 44.8947 59.3992 45.5757 60.6322 46.9378C61.8795 48.2998 62.5031 50.3931 62.5031 53.2175C62.5031 56.0563 61.8795 58.1567 60.6322 59.5188C59.3992 60.8808 57.7218 61.5619 55.6 61.5619C53.4065 61.5619 51.6861 60.8808 50.4388 59.5188C49.2058 58.1567 48.5893 56.0563 48.5893 53.2175ZM53.299 53.196C53.299 55.2463 53.5355 56.6155 54.0086 57.3037C54.367 57.8342 54.8617 58.0994 55.4925 58.0994C56.1376 58.0994 56.6322 57.8413 56.9763 57.3252C57.4494 56.6226 57.686 55.2463 57.686 53.196C57.686 51.1458 57.4566 49.7694 56.9978 49.0669C56.6394 48.5507 56.1376 48.2926 55.4925 48.2926C54.8473 48.2926 54.3527 48.5507 54.0086 49.0669C53.5355 49.7694 53.299 51.1458 53.299 53.196Z" fill="white"/>
<defs>
<linearGradient id="paint0_linear_1_8050" x1="91.0769" y1="-1.08038" x2="-1.08448" y2="91.0773" gradientUnits="userSpaceOnUse">
<stop offset="0.497217" stop-color="#FFD100"/>
<stop offset="0.514936" stop-color="#FFB401"/>
</linearGradient>
<linearGradient id="paint1_linear_1_8050" x1="76.1947" y1="13.8022" x2="13.7986" y2="76.1957" gradientUnits="userSpaceOnUse">
<stop offset="0.497217" stop-color="#FF4F19"/>
<stop offset="0.514936" stop-color="#E7001E"/>
</linearGradient>
</defs>
</svg>
