<svg width="90" height="90" viewBox="0 0 90 90" fill="none" xmlns="http://www.w3.org/2000/svg">
<path d="M44.8501 42.4503V90.0002C44.8501 90.0002 64.5001 76.2002 78.3001 72.1502C78.3001 72.1502 78.9001 42.7503 87.4501 28.0503L44.8501 42.4503Z" fill="#076170"/>
<path d="M57.1499 82.8002C57.1499 82.8002 57.8999 40.6503 59.3999 38.5503C60.8999 36.3003 73.7999 34.0503 73.7999 34.0503C73.7999 34.0503 68.5499 73.5002 69.7499 76.0502C69.8999 75.9002 64.4999 78.1502 57.1499 82.8002Z" fill="#B3690E"/>
<path d="M44.8501 90.0002C44.8501 90.0002 31.0502 78.3002 9.60019 72.1502C9.60019 72.1502 11.2502 48.0003 3.4502 29.5503L44.8501 42.4503V90.0002Z" fill="#3BAACF"/>
<path d="M18.3002 76.0502C18.3002 76.0502 30.9002 81.1502 31.8002 82.8002C32.7002 84.4502 32.7002 40.3503 32.7002 40.3503C32.7002 40.3503 15.4502 35.5503 13.9502 35.5503C13.9502 35.5503 19.2002 53.4003 18.3002 76.0502Z" fill="#E9C243"/>
<path opacity="0.3" d="M44.8498 42.4503V50.4003L83.3997 37.2003C84.4497 33.9003 85.7997 30.7503 87.2997 28.0503L44.8498 42.4503ZM6.1498 37.8003C5.3998 34.9503 4.4998 32.2503 3.2998 29.5503L44.6998 42.4503V50.4003L6.1498 37.8003Z" fill="black"/>
<path d="M0 25.3496L42.75 34.7996L89.9999 23.3996L43.65 20.8496L0 25.3496Z" fill="#4FC7E8"/>
<path d="M0 25.3496L3.45 34.7996L42.75 45.8996V34.7996L0 25.3496Z" fill="#3BAACF"/>
<path d="M42.75 45.9003C42.75 45.9003 78.45 32.7003 87.3 32.1003C87.3 32.1003 87.9 26.8503 90 23.5503L42.75 34.8003V45.9003Z" fill="#076170"/>
<path d="M12.75 28.2006L21.45 36.4506L31.05 32.1006L45 27.9006L62.3999 30.0006L71.5499 31.8006L78.8999 26.1006L12.75 28.2006Z" fill="#F0AE11"/>
<path d="M31.05 32.1003L45 27.9003L62.3999 30.0003L78.8999 26.1003L44.1 22.8003L12.75 28.2003L31.05 32.1003Z" fill="#F0AE11"/>
<path d="M12.75 28.1992V38.6992L30.3 43.4992L31.05 32.0992L12.75 28.1992Z" fill="#F8D048"/>
<path d="M62.3999 29.9996L62.6999 40.0496L77.6999 35.5496L78.8999 26.0996L62.3999 29.9996Z" fill="#C47116"/>
<path d="M52.9501 22.95C52.9501 22.95 52.9501 12.45 63.1501 3.3C63.1501 3.3 57.0001 5.54999 54.0001 4.95C50.4001 4.35 49.2001 0 49.2001 0C49.2001 0 40.5001 18.9 43.0501 21.3C45.6001 23.85 52.9501 22.95 52.9501 22.95Z" fill="#EA9F07"/>
<path d="M39.5998 29.0996C39.5998 29.0996 33.7498 17.0996 21.2998 10.7996C21.2998 10.7996 31.0498 9.8996 33.2998 8.6996C36.1498 7.34961 37.7998 3.59961 37.7998 3.59961C37.7998 3.59961 48.5998 22.4996 47.6998 25.3496C46.7998 28.1996 39.5998 29.0996 39.5998 29.0996Z" fill="#F8D048"/>
<path d="M45.8998 27.7501C45.8998 27.7501 36.7498 31.3501 25.0498 31.3501C0.449847 31.2001 -3.00015 13.5001 21.2998 15.1501C41.2498 16.6501 45.8998 27.7501 45.8998 27.7501Z" fill="#EA9F07"/>
<path d="M44.2502 27.5999C44.2502 27.5999 55.0502 28.4999 65.1001 25.9499C86.1001 20.5499 78.3001 4.64992 58.5002 11.3999C42.3002 16.9499 44.2502 27.5999 44.2502 27.5999Z" fill="#F0AE11"/>
<path d="M45.9001 27.7504C45.9001 27.7504 40.2001 30.0004 32.8501 30.0004C17.5501 30.0004 15.3001 18.9004 30.4501 19.9504C42.9001 20.8504 45.9001 27.7504 45.9001 27.7504Z" fill="#824000"/>
<path d="M45.9001 27.7505C45.9001 27.7505 53.4001 28.3505 60.4501 26.5505C75.1501 22.8005 69.6001 11.7005 55.9501 16.3505C44.5501 20.2505 45.9001 27.7505 45.9001 27.7505Z" fill="#824000"/>
</svg>
