<svg width="36" height="19" viewBox="0 0 36 19" fill="none" xmlns="http://www.w3.org/2000/svg">
<path fill-rule="evenodd" clip-rule="evenodd" d="M27.1321 3.89742L27.3994 0.835161C27.3994 0.556774 27.1321 0 26.063 0H7.3539C7.08662 0 6.55208 0.22271 6.55208 1.11355H4.14661C3.96843 1.11355 3.61207 1.2249 3.61207 1.67032C3.61207 2.11574 3.96843 2.2271 4.14661 2.2271H12.1648C12.343 2.2271 12.6994 2.33845 12.6994 2.78387C12.6994 3.22929 12.343 3.34065 12.1648 3.34065H1.74115C1.65206 3.34065 1.47388 3.452 1.47388 3.89742C1.47388 4.34284 1.65206 4.45419 1.74115 4.45419H10.5612C10.7394 4.45419 11.0957 4.56555 11.0957 5.01097C11.0957 5.45639 10.7394 5.56774 10.5612 5.56774H3.07752C2.89934 5.56774 2.54297 5.6791 2.54297 6.12452C2.54297 6.56994 2.89934 6.68129 3.07752 6.68129H12.6994C12.8775 6.68129 13.2339 6.84832 13.2339 7.51645C13.2339 8.18458 12.9666 8.35161 12.6994 8.35161H0.939332C0.76115 8.35161 0.404785 8.46297 0.404785 8.90839C0.404785 9.35381 0.76115 9.46516 0.939332 9.46516H9.22481C9.40299 9.46516 9.75936 9.57652 9.75936 10.0219C9.75936 10.4674 9.40299 10.5787 9.22481 10.5787H6.2848C6.10662 10.5787 5.75025 10.7457 5.75025 11.4139V14.4761C5.75025 14.8473 5.91062 15.5897 6.55208 15.5897H8.95752C8.95756 17.4346 10.3935 18.9303 12.1648 18.9303C13.9361 18.9303 15.372 17.4346 15.3721 15.5897H27.1323C27.1324 17.4346 28.5683 18.9303 30.3396 18.9303C32.1109 18.9303 33.5469 17.4346 33.5469 15.5897H34.0812C34.6158 15.5897 35.6849 15.367 35.6849 14.4761C35.6849 13.5853 35.8631 10.5787 35.9522 9.18678C36.0412 7.79484 32.4776 4.45419 32.4776 4.45419C31.9431 3.89742 31.5154 3.89742 30.874 3.89742H27.1321ZM12.1652 17.2601C13.0508 17.2601 13.7688 16.5122 13.7688 15.5898C13.7688 14.6673 13.0508 13.9194 12.1652 13.9194C11.2795 13.9194 10.5615 14.6673 10.5615 15.5898C10.5615 16.5122 11.2795 17.2601 12.1652 17.2601ZM31.9426 15.5898C31.9426 16.5122 31.2247 17.2601 30.339 17.2601C29.4533 17.2601 28.7354 16.5122 28.7354 15.5898C28.7354 14.6673 29.4533 13.9194 30.339 13.9194C31.2247 13.9194 31.9426 14.6673 31.9426 15.5898ZM27.6665 5.01074V8.35139H34.0811L31.9429 5.56752C31.7647 5.38193 31.1945 5.01074 30.3392 5.01074H27.6665Z" fill="white"/>
</svg>
