<svg width="41" height="40" viewBox="0 0 41 40" fill="none" xmlns="http://www.w3.org/2000/svg">
<g clip-path="url(#clip0_1_7791)">
<path d="M6.09238 30V8.52539H20.8141V12.1582H10.4283V17.2412H19.3932V20.874H10.4283V30H6.09238ZM31.5824 25.0488L35.684 25.7373C35.1566 27.2412 34.3217 28.3887 33.1791 29.1797C32.0463 29.9609 30.6254 30.3516 28.9164 30.3516C26.2113 30.3516 24.2094 29.4678 22.9105 27.7002C21.8852 26.2842 21.3725 24.4971 21.3725 22.3389C21.3725 19.7607 22.0463 17.7441 23.3939 16.2891C24.7416 14.8242 26.4457 14.0918 28.5063 14.0918C30.8207 14.0918 32.6469 14.8584 33.9848 16.3916C35.3227 17.915 35.9623 20.2539 35.9037 23.4082H25.5912C25.6205 24.6289 25.9525 25.5811 26.5873 26.2646C27.2221 26.9385 28.0131 27.2754 28.9604 27.2754C29.6049 27.2754 30.1469 27.0996 30.5863 26.748C31.0258 26.3965 31.3578 25.8301 31.5824 25.0488ZM31.8168 20.8887C31.7875 19.6973 31.4799 18.7939 30.8939 18.1787C30.308 17.5537 29.5951 17.2412 28.7553 17.2412C27.8568 17.2412 27.1146 17.5684 26.5287 18.2227C25.9428 18.877 25.6547 19.7656 25.6645 20.8887H31.8168Z" fill="#3DC051"/>
<path d="M28.7506 8.4707V10H22.9791C23.0416 9.42188 23.2291 8.875 23.5416 8.35938C23.8541 7.83984 24.4713 7.15234 25.3932 6.29688C26.1354 5.60547 26.5905 5.13672 26.7584 4.89062C26.985 4.55078 27.0983 4.21484 27.0983 3.88281C27.0983 3.51562 26.9987 3.23438 26.7995 3.03906C26.6041 2.83984 26.3327 2.74023 25.985 2.74023C25.6413 2.74023 25.3678 2.84375 25.1647 3.05078C24.9616 3.25781 24.8444 3.60156 24.8131 4.08203L23.1725 3.91797C23.2702 3.01172 23.5768 2.36133 24.0924 1.9668C24.608 1.57227 25.2526 1.375 26.026 1.375C26.8737 1.375 27.5397 1.60352 28.0241 2.06055C28.5084 2.51758 28.7506 3.08594 28.7506 3.76562C28.7506 4.15234 28.6803 4.52148 28.5397 4.87305C28.403 5.2207 28.1842 5.58594 27.8834 5.96875C27.6842 6.22266 27.3248 6.58789 26.8053 7.06445C26.2858 7.54102 25.9557 7.85742 25.8151 8.01367C25.6784 8.16992 25.567 8.32227 25.4811 8.4707H28.7506ZM34.7279 3.51367L33.1341 3.68945C33.0951 3.36133 32.9935 3.11914 32.8295 2.96289C32.6654 2.80664 32.4525 2.72852 32.1908 2.72852C31.8431 2.72852 31.5482 2.88477 31.306 3.19727C31.0677 3.50977 30.9173 4.16016 30.8548 5.14844C31.265 4.66406 31.7748 4.42188 32.3841 4.42188C33.0716 4.42188 33.6595 4.68359 34.1478 5.20703C34.64 5.73047 34.8861 6.40625 34.8861 7.23438C34.8861 8.11328 34.6283 8.81836 34.1127 9.34961C33.597 9.88086 32.9349 10.1465 32.1263 10.1465C31.2591 10.1465 30.5462 9.81055 29.9877 9.13867C29.4291 8.46289 29.1498 7.35742 29.1498 5.82227C29.1498 4.24805 29.4408 3.11328 30.0228 2.41797C30.6048 1.72266 31.3607 1.375 32.2904 1.375C32.9427 1.375 33.4818 1.55859 33.9076 1.92578C34.3373 2.28906 34.6107 2.81836 34.7279 3.51367ZM30.9955 7.10547C30.9955 7.64062 31.1185 8.05469 31.3646 8.34766C31.6107 8.63672 31.892 8.78125 32.2084 8.78125C32.513 8.78125 32.767 8.66211 32.9701 8.42383C33.1732 8.18555 33.2748 7.79492 33.2748 7.25195C33.2748 6.69336 33.1654 6.28516 32.9466 6.02734C32.7279 5.76562 32.4545 5.63477 32.1263 5.63477C31.8099 5.63477 31.5423 5.75977 31.3236 6.00977C31.1048 6.25586 30.9955 6.62109 30.9955 7.10547Z" fill="#3DC051"/>
</g>
<defs>
<clipPath id="clip0_1_7791">
<rect width="40" height="40" fill="white" transform="translate(0.5)"/>
</clipPath>
</defs>
</svg>
