<svg width="41" height="40" viewBox="0 0 41 40" fill="none" xmlns="http://www.w3.org/2000/svg">
<g clip-path="url(#clip0_1_7806)">
<path d="M40.4638 21.6848C39.552 18.9689 37.7208 16.6863 35.316 15.2718C34.1008 14.5517 32.7988 14.1177 31.4794 13.892C31.896 12.6594 32.1738 11.358 32.1738 9.98656C32.1738 7.14013 31.1669 4.38051 29.3267 2.19517C29.1531 1.98684 28.8666 1.94358 28.6322 2.07364C28.4066 2.20385 28.3024 2.49016 28.3805 2.75056C28.693 3.70539 28.8406 4.57272 28.8406 5.42339C28.8406 10.1267 25.1074 13.9509 20.5075 13.9509C15.9077 13.9509 12.1745 10.1239 12.1745 5.42339C12.1745 4.58175 12.3307 3.70539 12.6345 2.75056C12.7127 2.49016 12.6085 2.20385 12.3828 2.07364C12.1485 1.94358 11.8619 1.98684 11.6884 2.19517C9.85374 4.37981 8.83989 7.13944 8.83989 9.98378C8.83989 11.3553 9.10898 12.6566 9.53431 13.8892C8.22186 14.1156 6.91079 14.5531 5.69556 15.2683C3.29078 16.6912 1.4589 18.9654 0.530462 21.6813C0.44366 21.9417 0.547823 22.2193 0.773509 22.3582C1.00788 22.4971 1.29432 22.4537 1.46793 22.254C2.11909 21.4992 2.78733 20.9263 3.49911 20.5097C7.47466 18.1577 12.5821 19.5548 14.8806 23.6339C17.1813 27.7038 15.8098 32.8766 11.8335 35.2862C11.1218 35.7114 10.3058 36.0063 9.34196 36.2147C9.09009 36.2754 8.89912 36.5098 8.89912 36.7787C8.9078 37.0565 9.09009 37.282 9.35064 37.3341C12.111 37.8722 14.9497 37.3862 17.3573 35.9633C18.6073 35.2342 19.6405 34.2627 20.4995 33.1864C21.3592 34.2627 22.4009 35.2342 23.6508 35.9633C26.0466 37.3862 28.8944 37.8723 31.6436 37.3341C31.9127 37.282 32.0863 37.0565 32.095 36.7787C32.095 36.5098 31.9127 36.2754 31.6523 36.2147C30.6884 36.0151 29.8725 35.7113 29.1697 35.2862C25.1851 32.9342 23.822 27.7031 26.1143 23.6339C28.4149 19.5555 33.5168 18.1583 37.5028 20.5097C38.2055 20.9348 38.8742 21.4992 39.5256 22.254C39.6992 22.4537 39.9945 22.4971 40.22 22.3582C40.4568 22.2195 40.561 21.9417 40.4638 21.6848ZM20.4367 24.2263C18.5965 24.2263 17.1035 22.734 17.1035 20.8938C17.1035 19.0543 18.5965 17.5613 20.4367 17.5613C22.2769 17.5613 23.7706 19.0536 23.7706 20.8938C23.7699 22.7333 22.3394 24.2263 20.4367 24.2263ZM27.2351 28.2192C27.3151 29.8004 27.9809 31.3184 29.1253 32.4496C32.4203 29.9886 34.6202 26.1596 34.8959 21.7972C33.3279 21.3686 31.7231 21.6068 30.3426 22.4056C29.9919 24.6985 28.867 26.6568 27.2351 28.2192ZM18.0896 11.206C19.9103 10.751 21.2401 10.7876 22.9172 11.2077C24.44 10.5288 25.6303 9.22513 26.2143 7.61407C24.4574 6.8575 22.5338 6.43807 20.5061 6.43807C18.4798 6.43807 16.5507 6.85375 14.8008 7.60747C15.3813 9.15742 16.5688 10.5254 18.0896 11.206ZM11.8745 32.4483C13.0175 31.3191 13.6821 29.7963 13.7592 28.2116C12.128 26.7124 11.01 24.693 10.6544 22.4063C9.31209 21.6292 7.70799 21.3584 6.10179 21.7959C6.37748 26.1568 8.57601 29.99 11.8745 32.4483Z" fill="#3DC051"/>
</g>
<defs>
<clipPath id="clip0_1_7806">
<rect width="40" height="40" fill="white" transform="translate(0.5)"/>
</clipPath>
</defs>
</svg>
