<svg width="41" height="40" viewBox="0 0 41 40" fill="none" xmlns="http://www.w3.org/2000/svg">
<path d="M22.0832 20C22.9576 20 23.6665 19.2911 23.6665 18.4167C23.6665 17.5422 22.9576 16.8333 22.0832 16.8333C21.2087 16.8333 20.4998 17.5422 20.4998 18.4167C20.4998 19.2911 21.2087 20 22.0832 20Z" fill="#3DC051"/>
<path d="M19.7082 13.6667C20.1454 13.6667 20.4998 13.3122 20.4998 12.875C20.4998 12.4378 20.1454 12.0833 19.7082 12.0833C19.2709 12.0833 18.9165 12.4378 18.9165 12.875C18.9165 13.3122 19.2709 13.6667 19.7082 13.6667Z" fill="#3DC051"/>
<path d="M21.2915 10.5C21.7287 10.5 22.0832 10.1456 22.0832 9.70833C22.0832 9.27111 21.7287 8.91667 21.2915 8.91667C20.8543 8.91667 20.4998 9.27111 20.4998 9.70833C20.4998 10.1456 20.8543 10.5 21.2915 10.5Z" fill="#3DC051"/>
<path d="M9.4165 1V4.16667H12.5832V31.0833C12.5832 33.183 13.4172 35.1966 14.9019 36.6813C16.3866 38.1659 18.4002 39 20.4998 39C22.5995 39 24.6131 38.1659 26.0978 36.6813C27.5824 35.1966 28.4165 33.183 28.4165 31.0833V4.16667H31.5832V1H9.4165ZM25.2498 4.16667V24.75H20.4998C20.4998 24.3301 20.333 23.9273 20.0361 23.6304C19.7392 23.3335 19.3364 23.1667 18.9165 23.1667C18.4966 23.1667 18.0939 23.3335 17.7969 23.6304C17.5 23.9273 17.3332 24.3301 17.3332 24.75H15.7498V4.16667H25.2498Z" fill="#3DC051"/>
</svg>
