<svg width="41" height="40" viewBox="0 0 41 40" fill="none" xmlns="http://www.w3.org/2000/svg">
<path fill-rule="evenodd" clip-rule="evenodd" d="M34.3495 31.1111C29.8051 19.7622 24.5006 16.7711 24.5006 11.1111V4.44444H25.6117C25.9064 4.44444 26.189 4.32738 26.3974 4.11901C26.6058 3.91063 26.7228 3.62802 26.7228 3.33333V1.11111C26.7228 0.816426 26.6058 0.533811 26.3974 0.325437C26.189 0.117063 25.9064 0 25.6117 0H14.5006C14.2059 0 13.9233 0.117063 13.7149 0.325437C13.5066 0.533811 13.3895 0.816426 13.3895 1.11111V3.33333C13.3895 3.62802 13.5066 3.91063 13.7149 4.11901C13.9233 4.32738 14.2059 4.44444 14.5006 4.44444H15.6117V11.1111C15.6117 16.7711 10.3073 19.7622 5.76283 31.1111C4.31617 34.7222 0.600611 40 20.0562 40C39.5117 40 35.7962 34.7222 34.3495 31.1111ZM30.7562 35.0022C29.1962 35.4689 26.0917 36 20.0562 36C14.0206 36 10.9162 35.4689 9.35617 35.0022C8.80283 34.8378 8.58728 34.1956 8.78283 33.6067C9.27172 32.1178 10.1939 29.5444 11.9184 26.6711C16.1317 19.6511 20.5028 27.7756 24.1406 27.7756C27.7784 27.7756 26.7806 24.3067 28.1939 26.6711C29.4945 28.8588 30.5463 31.1851 31.3295 33.6067C31.5251 34.1956 31.3095 34.8356 30.7562 35.0022Z" fill="#3DC051"/>
</svg>
