<svg width="41" height="40" viewBox="0 0 41 40" fill="none" xmlns="http://www.w3.org/2000/svg">
<g clip-path="url(#clip0_1_7781)">
<path fill-rule="evenodd" clip-rule="evenodd" d="M36.5 20C36.5 28.8366 29.3366 36 20.5 36C17.0591 36 13.8719 34.9138 11.2626 33.0657L33.5657 10.7626C35.4138 13.3719 36.5 16.5591 36.5 20ZM8.30876 30.3626L30.8626 7.80876C28.0708 5.4334 24.4528 4 20.5 4C11.6634 4 4.5 11.1634 4.5 20C4.5 23.9528 5.9334 27.5708 8.30876 30.3626ZM40.5 20C40.5 31.0457 31.5457 40 20.5 40C9.4543 40 0.5 31.0457 0.5 20C0.5 8.9543 9.4543 0 20.5 0C31.5457 0 40.5 8.9543 40.5 20Z" fill="#3DC051"/>
<path d="M9.37793 25V16.6738H6.4043V14.9785H14.3682V16.6738H11.4014V25H9.37793ZM15.6875 25V14.9785H17.7109V18.9229H21.6758V14.9785H23.6992V25H21.6758V20.6182H17.7109V25H15.6875ZM32.21 21.3154L34.1719 21.9375C33.8711 23.0312 33.3698 23.8447 32.668 24.3779C31.9707 24.9066 31.0843 25.1709 30.0088 25.1709C28.6781 25.1709 27.5843 24.7174 26.7275 23.8105C25.8708 22.8991 25.4424 21.6549 25.4424 20.0781C25.4424 18.4102 25.873 17.1159 26.7344 16.1953C27.5957 15.2702 28.7282 14.8076 30.1318 14.8076C31.3577 14.8076 32.3535 15.1699 33.1191 15.8945C33.5749 16.3229 33.9167 16.9382 34.1445 17.7402L32.1416 18.2188C32.0231 17.6992 31.7747 17.2891 31.3965 16.9883C31.0228 16.6875 30.5671 16.5371 30.0293 16.5371C29.2865 16.5371 28.6826 16.8037 28.2178 17.3369C27.7575 17.8701 27.5273 18.7337 27.5273 19.9277C27.5273 21.1947 27.7552 22.097 28.2109 22.6348C28.6667 23.1725 29.2591 23.4414 29.9883 23.4414C30.526 23.4414 30.9886 23.2705 31.376 22.9287C31.7633 22.5869 32.0413 22.0492 32.21 21.3154Z" fill="#3DC051"/>
</g>
<defs>
<clipPath id="clip0_1_7781">
<rect width="40" height="40" fill="white" transform="translate(0.5)"/>
</clipPath>
</defs>
</svg>
