<svg width="20" height="20" viewBox="0 0 20 20" fill="none" xmlns="http://www.w3.org/2000/svg">
<path fill-rule="evenodd" clip-rule="evenodd" d="M10 20C15.5228 20 20 15.5228 20 10C20 4.47715 15.5228 0 10 0C4.47715 0 0 4.47715 0 10C0 15.5228 4.47715 20 10 20ZM14.5937 6.25304C14.9251 6.6235 14.8934 7.19247 14.523 7.52387L11.347 10.365L14.6772 13.241C15.0534 13.5659 15.095 14.1342 14.7701 14.5104C14.4452 14.8866 13.8769 14.9282 13.5007 14.6033L9.99421 11.575L6.60019 14.6111C6.22972 14.9425 5.66076 14.9109 5.32936 14.5404C4.99797 14.17 5.02964 13.601 5.4001 13.2696L8.62055 10.3887L5.45546 7.65536C5.07927 7.33048 5.03768 6.76216 5.36256 6.38597C5.68744 6.00978 6.25577 5.96818 6.63196 6.29306L9.97329 9.17866L13.3229 6.1823C13.6933 5.85091 14.2623 5.88258 14.5937 6.25304Z" fill="#CE3737"/>
</svg>
