<svg width="20" height="20" viewBox="0 0 20 20" fill="none" xmlns="http://www.w3.org/2000/svg">
<path d="M6.97333 3.99171L4.69333 3.23087C4.44278 3.14742 4.17598 3.1247 3.91492 3.16459C3.65387 3.20448 3.40603 3.30584 3.19182 3.4603C2.97762 3.61477 2.80319 3.81792 2.68291 4.05303C2.56263 4.28813 2.49994 4.54845 2.5 4.81254V14.6317C2.49992 14.9816 2.60998 15.3227 2.8146 15.6066C3.01921 15.8905 3.30799 16.1028 3.64 16.2134L6.97333 17.3242C7.31521 17.4381 7.68479 17.4381 8.02667 17.3242L11.9733 16.0092C12.3152 15.8953 12.6848 15.8953 13.0267 16.0092L15.3067 16.7692C15.5573 16.8527 15.8242 16.8754 16.0853 16.8355C16.3464 16.7955 16.5943 16.6941 16.8085 16.5395C17.0227 16.385 17.1971 16.1817 17.3174 15.9465C17.4376 15.7113 17.5002 15.4509 17.5 15.1867V5.36837C17.5001 5.01853 17.3902 4.67752 17.1857 4.39365C16.9813 4.10977 16.6927 3.89743 16.3608 3.78671L13.0275 2.67587C12.6854 2.56182 12.3155 2.56182 11.9733 2.67587L8.02583 3.99087C7.68395 4.10474 7.31438 4.10474 6.9725 3.99087L6.97333 3.99171Z" stroke="#C4C4C4" stroke-linecap="round" stroke-linejoin="round"/>
<path d="M7.5 4.16837V17M12.5 3V15.5" stroke="#C4C4C4" stroke-linecap="round" stroke-linejoin="round"/>
</svg>
