<svg width="20" height="20" viewBox="0 0 20 20" fill="none" xmlns="http://www.w3.org/2000/svg">
<path d="M17.3636 3H2.63636C1.73262 3 1 3.72754 1 4.625V14.375C1 15.2725 1.73262 16 2.63636 16H17.3636C18.2674 16 19 15.2725 19 14.375V4.625C19 3.72754 18.2674 3 17.3636 3Z" stroke="#C4C4C4" stroke-linecap="round" stroke-linejoin="round"/>
<path fill-rule="evenodd" clip-rule="evenodd" d="M7.14645 8H4.35355V7H8.35355L8.70711 7.85355L5.56066 11H8.35355V12H4.35355L4 11.1464L7.14645 8ZM9.85355 12V7H10.8536V12H9.85355ZM12.3536 7.5V7H12.8536H13.3536H14.3536C15.4581 7 16.3536 7.89542 16.3536 9C16.3536 10.1046 15.4581 11 14.3536 11H13.3536V12H12.3536V11V10.5V7.5ZM13.3536 10H14.3536C14.9058 10 15.3536 9.55228 15.3536 9C15.3536 8.44772 14.9058 8 14.3536 8H13.3536V10Z" fill="#C4C4C4"/>
</svg>
