<svg width="14" height="20" viewBox="0 0 14 20" fill="none" xmlns="http://www.w3.org/2000/svg">
<path d="M6.98983 0C4.26311 0 2.05273 1.77272 2.05273 4.80871V11.931H3.89103V4.8824H3.89256C3.89256 4.87184 3.89256 4.8604 3.89256 4.8505C3.89256 2.76257 5.28424 1.82705 7.00076 1.82705C8.71729 1.82705 10.1079 2.79337 10.1079 4.8505C10.1079 4.86128 10.1079 4.8725 10.1079 4.8824V11.931H11.9462V4.8824C11.9462 4.85776 11.9462 4.83335 11.9462 4.80871C11.947 1.64338 9.71656 0 6.98983 0Z" fill="url(#paint0_linear_1_7332)"/>
<path d="M6.9897 1.2561C5.65421 1.2561 3.35465 1.77281 3.35465 4.8088L3.25562 11.9311H3.8909V4.88249H3.89243C3.89243 4.87193 3.89243 4.86049 3.89243 4.85059C3.89243 2.76266 5.2841 1.82714 7.00063 1.82714C8.71716 1.82714 10.1077 2.79346 10.1077 4.85059C10.1077 4.86137 10.1077 4.87259 10.1077 4.88249V11.9311H10.6213C10.6213 11.9311 10.6766 4.97839 10.6766 4.97751C10.6774 1.81152 8.35339 1.2561 6.9897 1.2561Z" fill="url(#paint1_linear_1_7332)"/>
<path d="M11.8457 8.78426C11.0204 8.76226 8.56868 8.71167 6.99994 8.71167C5.43119 8.71167 2.97969 8.76182 2.15443 8.78426C1.29508 8.8078 0.497803 8.94 0.497803 9.16854V19.2211C0.497803 19.969 2.16974 20 6.99994 20C11.8301 20 13.5021 19.969 13.5021 19.2211V9.16854C13.5021 8.94 12.7048 8.8078 11.8457 8.78426Z" fill="url(#paint2_linear_1_7332)"/>
<g style="mix-blend-mode:color-dodge" opacity="0.2">
<path d="M1.762 9.02402C2.65415 9.00203 5.30349 8.95143 6.99991 8.95143C8.69633 8.95143 11.3457 9.00159 12.2378 9.02402C12.7102 9.0359 13.1652 9.07616 13.4983 9.14259C13.4404 8.9301 12.6718 8.80692 11.8456 8.78426C11.0195 8.7616 8.56866 8.71167 6.99991 8.71167C5.43116 8.71167 2.97966 8.76182 2.1544 8.78426C1.32915 8.8067 0.558548 8.9301 0.501709 9.14259C0.834871 9.07616 1.28958 9.0359 1.762 9.02402Z" fill="#ACACAC"/>
</g>
<defs>
<linearGradient id="paint0_linear_1_7332" x1="2.24708" y1="2.51929" x2="11.8326" y2="12.0459" gradientUnits="userSpaceOnUse">
<stop stop-color="#E6E7E8"/>
<stop offset="0.28" stop-color="#5B5A5C"/>
<stop offset="0.64" stop-color="#969697"/>
<stop offset="0.94" stop-color="#49484A"/>
<stop offset="1" stop-color="#414042"/>
</linearGradient>
<linearGradient id="paint1_linear_1_7332" x1="2.96268" y1="3.54157" x2="11.0107" y2="11.5402" gradientUnits="userSpaceOnUse">
<stop stop-color="#414042"/>
<stop offset="0.35" stop-color="#BCBEC0"/>
<stop offset="0.72" stop-color="#58595B"/>
<stop offset="1" stop-color="white"/>
</linearGradient>
<linearGradient id="paint2_linear_1_7332" x1="0.497803" y1="14.3558" x2="13.5021" y2="14.3558" gradientUnits="userSpaceOnUse">
<stop stop-color="#7D612E"/>
<stop offset="0.06" stop-color="#BFA04B"/>
<stop offset="0.07" stop-color="#B49546"/>
<stop offset="0.14" stop-color="#A7853F"/>
<stop offset="0.21" stop-color="#635123"/>
<stop offset="0.32" stop-color="#C9AF51"/>
<stop offset="0.72" stop-color="#C5AA4E"/>
<stop offset="0.91" stop-color="#FDEA84"/>
<stop offset="1" stop-color="#725B2E"/>
</linearGradient>
</defs>
</svg>
