<svg xmlns="http://www.w3.org/2000/svg" width="78" height="78" fill="none" xmlns:v="https://vecta.io/nano"><path d="M37.148 67.218c15.298 0 27.7-12.404 27.7-27.705s-12.402-27.705-27.7-27.705-27.7 12.404-27.7 27.705 12.402 27.705 27.7 27.705z" fill="#fdfdfd"/><g fill="#193f68"><path d="M68.335 41.145a2.35 2.35 0 0 0 0-3.278l-1.2-1.218c-.887-.9-1.15-2.564-.585-3.694l.764-1.528c.565-1.132.108-2.534-1.013-3.117l-1.518-.787c-1.122-.582-1.886-2.083-1.699-3.334l.255-1.692a2.35 2.35 0 0 0-1.926-2.65l-1.687-.282c-1.248-.207-2.438-1.397-2.645-2.645l-.28-1.687c-.207-1.248-1.402-2.113-2.65-1.927l-1.689.255c-1.251.187-2.751-.578-3.333-1.7l-.789-1.518c-.582-1.122-1.987-1.579-3.116-1.014l-1.528.764c-1.132.565-2.793.303-3.693-.585L38.784 8.31a2.35 2.35 0 0 0-3.278 0l-1.218 1.198c-.9.888-2.564 1.15-3.694.585l-1.533-.762a2.35 2.35 0 0 0-3.116 1.014l-.787 1.518c-.582 1.122-2.082 1.886-3.333 1.7l-1.692-.255a2.35 2.35 0 0 0-2.65 1.927l-.282 1.687c-.207 1.248-1.397 2.439-2.645 2.645l-1.687.282a2.35 2.35 0 0 0-1.926 2.65l.255 1.692c.189 1.251-.577 2.751-1.699 3.334l-1.518.787c-1.122.582-1.578 1.987-1.014 3.117l.764 1.528c.565 1.132.303 2.794-.585 3.694L5.95 37.869c-.887.903-.887 2.375 0 3.278l1.2 1.218c.887.9 1.15 2.565.585 3.694l-.764 1.528c-.565 1.132-.108 2.534 1.014 3.117l1.518.787c1.122.582 1.886 2.083 1.699 3.334l-.255 1.692c-.187 1.251.678 2.444 1.926 2.653l1.687.28c1.248.207 2.438 1.397 2.645 2.645l.282 1.687a2.35 2.35 0 0 0 2.65 1.926l1.692-.254c1.251-.187 2.751.577 3.333 1.7l.787 1.518c.582 1.122 1.987 1.579 3.116 1.014l1.528-.764c1.132-.565 2.793-.303 3.696.585l1.218 1.2a2.35 2.35 0 0 0 3.278 0l1.218-1.2c.9-.888 2.564-1.15 3.693-.585l1.528.764a2.35 2.35 0 0 0 3.116-1.014l.789-1.518c.582-1.122 2.082-1.886 3.333-1.7l1.689.254a2.35 2.35 0 0 0 2.65-1.926l.28-1.687c.207-1.248 1.397-2.438 2.645-2.645l1.687-.28c1.248-.209 2.113-1.402 1.926-2.653l-.255-1.69c-.187-1.251.578-2.751 1.699-3.334l1.518-.787c1.122-.583 1.578-1.987 1.013-3.117l-.764-1.528c-.565-1.132-.302-2.794.585-3.694l1.2-1.223zM37.142 66.38c-14.837 0-26.866-12.031-26.866-26.871s12.029-26.871 26.866-26.871 26.866 12.031 26.866 26.871S51.982 66.38 37.142 66.38zM20.673 31.339c.033.061.05.116.058.164a1.52 1.52 0 0 1 .01.212v3.359c0 .277-.076.441-.229.489-.076.025-.174.035-.29.035s-.209-.01-.277-.03-.121-.045-.156-.073a.28.28 0 0 1-.086-.121c-.02-.068-.03-.174-.03-.315v-2.027l-.441.595-.368.512-.108.141a.54.54 0 0 1-.149.108c-.078.045-.164.071-.255.071a.48.48 0 0 1-.247-.063c-.076-.043-.128-.083-.161-.124l-.048-.066-.479-.646-.388-.529v2.04l-.01.209c-.005.045-.025.098-.058.154-.06.108-.217.164-.471.164-.247 0-.398-.056-.459-.164a.45.45 0 0 1-.058-.156c-.008-.048-.01-.121-.01-.219v-3.356l.01-.209a.45.45 0 0 1 .058-.161c.061-.106.217-.156.471-.156.108 0 .202.013.282.04s.131.053.154.081l.035.035 1.374 1.803 1.374-1.798c.068-.109.232-.164.487-.164s.408.058.466.166zm3.325.146l1.634 3.377c.068.136.103.24.103.308 0 .144-.116.277-.35.393-.136.068-.245.103-.323.103s-.144-.018-.194-.053-.086-.076-.109-.116l-.093-.182-.315-.653h-1.677l-.315.653-.093.177a.44.44 0 0 1-.108.111c-.05.038-.116.058-.194.058s-.187-.035-.323-.103c-.234-.113-.35-.242-.35-.388 0-.068.035-.171.103-.308l1.634-3.384a.54.54 0 0 1 .202-.224.55.55 0 0 1 .287-.086.51.51 0 0 1 .482.318zm-.489 1.452l-.398.83h.804l-.406-.83zm3.316-1.773l1.119.005c.585 0 1.099.212 1.543.633a2.06 2.06 0 0 1 .666 1.556 2.18 2.18 0 0 1-.65 1.584 2.12 2.12 0 0 1-1.576.661H26.82c-.247 0-.398-.05-.459-.151-.048-.086-.073-.214-.073-.388v-3.366l.01-.212c.005-.045.025-.096.058-.156.053-.111.212-.164.469-.164zm1.906 3.041a1.06 1.06 0 0 0 .351-.815c0-.328-.114-.6-.343-.82s-.494-.33-.802-.33h-.58v2.287h.587c.29 0 .552-.108.787-.323zm3.193.329h1.863l.209.01a.46.46 0 0 1 .161.058c.108.055.164.214.164.472 0 .282-.076.449-.224.497a.99.99 0 0 1-.315.035h-2.395c-.282 0-.449-.076-.497-.23-.025-.066-.035-.166-.035-.308v-3.366c0-.204.038-.346.116-.421s.222-.111.436-.111h2.385l.209.01a.46.46 0 0 1 .161.058c.108.056.164.214.164.472 0 .282-.076.449-.224.497-.068.025-.174.035-.315.035h-1.858v.61h1.198l.209.01c.045.005.098.025.159.058.108.055.164.214.164.471 0 .282-.076.449-.229.497a.99.99 0 0 1-.315.035H31.93v.61h-.005zm5.329-2.832l.01-.209a.44.44 0 0 1 .058-.161c.055-.108.214-.164.472-.164.282 0 .451.076.502.224.02.068.03.174.03.315v3.364l-.01.212c-.005.045-.025.096-.058.156-.056.108-.214.164-.472.164-.282 0-.449-.076-.497-.23-.025-.066-.035-.166-.035-.308v-3.364zm4.815-.35a.28.28 0 0 1 .171-.141.93.93 0 0 1 .288-.035 1.03 1.03 0 0 1 .277.03c.07.02.123.045.156.073a.25.25 0 0 1 .076.126c.025.066.035.167.035.308v3.359l-.01.212a.45.45 0 0 1-.058.156c-.055.108-.214.164-.471.164-.156 0-.267-.013-.328-.035a.36.36 0 0 1-.151-.116l-1.79-2.373v1.992l-.01.212c-.005.045-.025.096-.058.156-.055.108-.214.164-.471.164-.25 0-.403-.053-.459-.164-.033-.061-.053-.116-.058-.164a2.07 2.07 0 0 1-.01-.212v-3.376c0-.154.02-.265.058-.335a.28.28 0 0 1 .171-.141c.076-.025.177-.035.295-.035s.217.01.287.033a.38.38 0 0 1 .149.076c.015.013.063.066.139.156l1.707 2.295V31.69c.008-.154.028-.267.066-.338zm4.069-.188H49.5c.129 0 .224.015.285.045a.23.23 0 0 1 .121.141.89.89 0 0 1 .03.255c0 .106-.01.189-.03.252s-.055.106-.103.131c-.073.035-.177.056-.308.056H48.34v3.044l-.01.207c-.005.045-.025.096-.055.154s-.083.098-.161.123a.99.99 0 0 1-.303.035 1.06 1.06 0 0 1-.3-.035c-.076-.025-.126-.066-.156-.123s-.048-.111-.055-.156-.01-.116-.01-.209v-3.041h-1.162c-.129 0-.225-.015-.285-.045s-.101-.078-.121-.141-.03-.149-.03-.255.01-.189.03-.252.056-.106.103-.131a.75.75 0 0 1 .313-.053zm7.087.169c.033-.061.086-.103.164-.126s.174-.035.29-.035.209.01.277.03.121.045.156.073a.28.28 0 0 1 .086.121c.02.068.03.174.03.315v3.359l-.01.209c-.005.045-.025.098-.058.159-.055.108-.214.164-.471.164-.282 0-.449-.076-.497-.224-.025-.068-.035-.174-.035-.315v-1.228h-1.604v1.236l-.01.209c-.005.045-.025.098-.058.159-.056.108-.214.164-.472.164-.282 0-.449-.076-.497-.224-.025-.068-.035-.174-.035-.315v-3.361l.01-.209a.44.44 0 0 1 .058-.161c.055-.108.214-.164.472-.164.282 0 .449.076.502.224.02.068.03.174.03.315v1.236h1.604v-1.241l.01-.209a.58.58 0 0 1 .058-.159zm2.708 3.201h1.863l.209.01a.46.46 0 0 1 .161.058c.108.055.164.214.164.472 0 .282-.076.449-.224.497-.068.025-.174.035-.315.035h-2.395c-.283 0-.449-.076-.497-.23a.93.93 0 0 1-.035-.308v-3.366c0-.204.038-.346.116-.421s.222-.111.436-.111H57.8l.209.01a.47.47 0 0 1 .161.058c.108.056.164.214.164.472 0 .282-.076.449-.224.497-.068.025-.174.035-.315.035h-1.858v.61h1.198l.209.01c.046.005.101.025.161.058.108.055.164.214.164.471 0 .282-.076.449-.229.497-.068.025-.174.035-.315.035H55.94v.61h-.008zm-25.948 4.545a.62.62 0 0 1 .351-.267 1.96 1.96 0 0 1 .575-.073c.23 0 .414.02.55.061a.94.94 0 0 1 .315.146c.073.055.126.141.156.255.048.136.073.348.073.631v3.657c0 1.064-.33 2.032-.993 2.905-.323.411-.739.744-1.245.999s-1.072.381-1.689.381-1.177-.129-1.682-.388a3.52 3.52 0 0 1-1.228-1.016 4.66 4.66 0 0 1-.981-2.905v-3.644l.018-.431c.013-.093.05-.199.116-.32s.174-.207.325-.255.358-.073.618-.073.464.025.618.073.257.134.315.255c.096.187.146.439.146.761v3.631a2.89 2.89 0 0 0 .363 1.404 1.35 1.35 0 0 0 .544.545c.242.136.529.207.86.207.59 0 1.029-.219 1.319-.653s.436-.941.436-1.513v-3.704c0-.316.04-.537.121-.666zm4.092 7.298c-.209-.257-.315-.489-.315-.696s.174-.479.519-.817c.202-.194.416-.29.64-.29s.54.202.943.605c.113.136.275.267.484.393s.403.187.58.187c.751 0 1.125-.308 1.125-.921 0-.187-.104-.34-.308-.466a2.22 2.22 0 0 0-.769-.272c-.305-.055-.638-.146-.991-.273s-.686-.272-.993-.441-.562-.439-.769-.804-.308-.809-.308-1.326c0-.709.265-1.329.792-1.858s1.248-.792 2.161-.792c.484 0 .925.063 1.326.187s.676.252.829.381l.303.229c.25.235.376.431.376.593s-.096.383-.29.666c-.275.403-.557.605-.847.605-.169 0-.378-.081-.63-.242a1.03 1.03 0 0 1-.139-.121 1.69 1.69 0 0 0-.186-.156c-.169-.106-.386-.157-.648-.157s-.479.063-.653.187a.6.6 0 0 0-.26.52c0 .222.103.401.307.54s.461.229.769.277.64.124 1.004.224a6.18 6.18 0 0 1 1.003.368c.305.144.562.399.769.757s.308.802.308 1.326-.106.986-.315 1.387-.484.709-.822.926a3.74 3.74 0 0 1-2.093.64c-.378 0-.739-.045-1.077-.139s-.613-.207-.822-.346c-.429-.257-.726-.509-.895-.751l-.108-.129zm12.549-6.994l3.267 6.753c.136.275.207.479.207.618 0 .29-.235.553-.703.787-.275.136-.489.207-.648.207a.65.65 0 0 1-.388-.108c-.101-.073-.174-.149-.217-.23l-.187-.363-.63-1.309h-3.353l-.63 1.309-.187.35a.88.88 0 0 1-.217.224c-.101.078-.229.116-.388.116s-.373-.068-.648-.204c-.469-.227-.703-.484-.703-.774 0-.136.068-.343.207-.618l3.267-6.766a1.07 1.07 0 0 1 .406-.449 1.06 1.06 0 0 1 .575-.169c.439-.005.762.204.971.625zm-.978 2.905l-.799 1.659h1.609l-.809-1.659zM18.228 28.243h37.977c.782-.086 1.392-.749 1.392-1.551a1.54 1.54 0 0 0-.255-.852c-4.385-6.471-11.792-10.725-20.197-10.725-8.353 0-15.72 4.204-20.117 10.609a1.55 1.55 0 0 0-.34.968 1.56 1.56 0 0 0 1.54 1.551z"/><path d="M39.779 20.504l-1.424-.212-.635-1.286c-.318-.641-.832-.641-1.15 0l-.635 1.286-1.427.212c-.673.098-.85.55-.421 1.024l1.097 1.069-.242 1.422c-.116.666.255.976.832.721l1.372-.721 1.371.721c.578.252.946-.055.832-.721l-.242-1.422 1.094-1.069c.429-.474.252-.928-.421-1.024z"/></g><path d="M30.63 21.494l-1.14-.169-.509-1.029c-.252-.512-.666-.512-.92 0l-.509 1.029-1.14.169c-.54.078-.681.439-.335.82l.877.855-.194 1.137c-.091.535.204.779.666.578l1.097-.578 1.097.578c.461.202.756-.045.666-.578l-.194-1.137.877-.855c.343-.381.202-.741-.338-.82zm3.877-.99l1.424-.212.635-1.286c.318-.641.832-.641 1.15 0l.635 1.286 1.425.212c.673.098.85.55.421 1.024L39.1 22.597l.242 1.422c.113.666-.255.976-.832.721l-1.371-.721-1.371.721c-.577.252-.946-.055-.832-.721l.242-1.422-1.094-1.069c-.426-.474-.25-.928.424-1.024zm9.15.99l1.139-.169.509-1.029c.254-.512.668-.512.92 0l.509 1.029 1.14.169c.539.078.681.441.338.82l-.877.855.194 1.137c.093.535-.204.779-.666.578l-1.097-.578-1.096.578c-.461.202-.759-.045-.666-.578l.194-1.137-.875-.855c-.348-.381-.207-.741.333-.82z" fill="#fff"/><path d="M39.736 50.771c-.429 0-.779.282-.779.628v11.786c0 .346.348.593.774.55l2.66-.378c.419-.073.764-.413.764-.759V51.401c0-.346-.35-.628-.779-.628h-2.64v-.002zm7.836 0c-.429 0-.779.282-.779.628v9.888c0 .346.31.494.688.333l2.794-1.41c.355-.192.648-.633.648-.978v-7.83c0-.346-.351-.628-.779-.628h-2.572v-.002zm7.768 4.652c.358 0 .751-.462.751-.462.34-.497 1.669-1.806 2.062-3.369.018-.043.03-.086.035-.134l.008-.033c-.008-.01-.005-.02-.005-.03 0-.348-.348-.628-.779-.628h-.023-2.055c-.396.002-.721.242-.766.55L54.56 54.8c.003.345.35.623.779.623zm-20.762-4.652c.429 0 .779.282.779.628v11.786c0 .346-.348.593-.774.55l-2.66-.378c-.419-.073-.764-.413-.764-.759V51.401c0-.346.35-.628.779-.628h2.64v-.002zm-7.836 0c.429 0 .779.282.779.628v9.888c0 .346-.31.494-.688.333l-2.794-1.41c-.355-.192-.648-.633-.648-.978v-7.83c0-.346.35-.628.779-.628h2.572v-.002zm-7.767 4.652c-.358 0-.751-.462-.751-.462-.34-.497-1.669-1.806-2.062-3.369a.48.48 0 0 1-.035-.134l-.007-.033c.007-.01.005-.02.005-.03 0-.348.348-.628.779-.628h.023 2.055c.396.003.721.242.767.55l.008 3.483c-.003.345-.35.623-.779.623z" fill="#c94141"/></svg>