<svg xmlns="http://www.w3.org/2000/svg" width="78" height="78" fill="none" xmlns:v="https://vecta.io/nano"><mask id="A" maskUnits="userSpaceOnUse" x="0" y="0" width="78" height="78" mask-type="alpha"><path d="M77.892.093H0V78h77.892V.093z" fill="#c4c4c4"/></mask><g mask="url(#A)"><path d="M78.334 36.694L4.597 55.749l2.383-8.702-6.536-6.243 73.737-19.054-3.25 8.849 7.402 6.096z" fill="#fff"/><path d="M45.494 64.318c14.607-3.775 23.275-18.253 19.362-32.337S45.929 9.537 31.323 13.312 8.047 31.565 11.961 45.65s18.927 22.443 33.534 18.668z" fill="#fff"/><path d="M45.916 63.875c-11.454 2.96-23.162-1.664-29.391-10.68l-4.866 1.257a1.75 1.75 0 0 0 1.322 1.068c1.175.216 2.61.531 3.284 1.319.667.779.725 2.203.723 3.355-.002 1.009.896 1.801 1.938 1.706l.025-.002c3.485-.319 4.195.193 5.165 3.371l.009.028c.293.968 1.387 1.481 2.358 1.107l.033-.013c3.225-1.24 4.061-.978 5.934 1.828l.014.021c.564.852 1.769 1.047 2.592.419.94-.717 2.135-1.559 3.194-1.529 1.039.029 2.16.908 3.041 1.662.785.67 1.997.543 2.611-.276.707-.943 1.625-2.078 2.646-2.342.915-.236 1.875.069 3.437.755l.029.013c.947.419 2.062-.037 2.408-.984.27-.739.59-1.572.965-2.129.954-1.418 2.359-1.319 4.37-1.041l.031.004c1.034.147 1.975-.599 2.026-1.605.048-.941.128-2.042.477-2.742.667-1.339 2.327-1.566 3.733-1.743 1.045-.131 1.741-1.108 1.493-2.096a.91.91 0 0 1-.008-.033c-.809-3.229-.447-4.01 2.724-5.409a.22.22 0 0 1 .021-.009c.955-.417 1.327-1.539.8-2.413-.601-.996-1.293-2.244-1.117-3.254.174-.995 1.253-1.972 2.159-2.727.484-.404.684-1 .592-1.561l-4.858 1.255c-.72 10.811-8.462 20.461-19.916 23.421zm-13.94-50.176c11.454-2.96 23.161 1.664 29.391 10.68l4.86-1.256c-.21-.535-.694-.959-1.326-1.075-1.174-.215-2.608-.529-3.284-1.318-.668-.78-.725-2.203-.722-3.355.002-1.011-.899-1.803-1.943-1.706l-.024.002c-3.437.313-4.178-.152-5.162-3.37l-.01-.032c-.294-.962-1.378-1.474-2.346-1.108-.572.216-1.172.445-1.653.569-2.227.576-3.082-.513-4.328-2.382l-.017-.026c-.564-.846-1.76-1.041-2.581-.421-.771.582-1.669 1.239-2.479 1.449-1.408.364-2.763-.684-3.809-1.574-.789-.672-2.007-.534-2.616.294-.697.948-1.54 2.054-2.597 2.327-1.025.265-2.408-.275-3.511-.751-.957-.413-2.073.062-2.404 1.021-.372 1.076-.885 2.375-1.768 2.901-.958.57-2.312.383-3.529.215l-.027-.004c-1.035-.146-1.975.602-2.025 1.61-.046.937-.122 2.029-.475 2.738-.666 1.336-2.328 1.567-3.733 1.743-1.046.131-1.742 1.11-1.492 2.098.288 1.136.608 2.469.128 3.426-.459.913-1.781 1.557-2.871 2.034-.953.418-1.324 1.538-.798 2.412l.011.019c1.724 2.885 1.593 3.728-1.035 5.928l-.02.016c-.489.407-.687 1.011-.589 1.577l4.866-1.258c.721-10.812 8.463-20.461 19.917-23.421zM15.902 28.511l-.384-.171-.346.752.389.159.34-.74zm2.552-4.178l-.342-.241-.491.671.35.23.483-.66zm-3.207 5.669l-.395-.147-.294.773.399.134.289-.76zm2.263-4.332l-.357-.219-.445.701.365.207.437-.69zm-.852 1.395l-.371-.195-.396.728.378.184.39-.716zm40.439-5.98l-.615-.567-.287.3.605.558.297-.29zM13.685 36.293l-.423-.042-.054.571.436-.112.041-.417zm.565-3.197l-.412-.095-.186.804.415.082.183-.791zm-.338 1.589l-.418-.069-.13.815.42.055.128-.801zm.784-3.152l-.405-.121-.241.79.409.108.237-.777zm22.18-17.56l-.849.08.049.405.834-.079-.035-.407zm8.477.698l-.831-.192-.092.398.817.189.106-.395zm3.244 1.03l-.796-.296-.146.383.783.291.158-.378zm-27.992 6.153l-.306-.282-.578.603.315.272.568-.593zm23.079-7.54l-.842-.138-.064.403.828.136.078-.401zm-1.691-.25l-.85-.084-.036.407.837.082.05-.405zm-1.706-.14l-.852-.029-.008.408.838.028.022-.408zm-1.706-.03l-.852.026.02.407.838-.025-.006-.408zm15.939 5.042l-.688-.484-.244.334.677.476.255-.326zm-4.362-2.569l-.774-.345-.171.373.762.34.184-.367zm5.688 3.603l-.653-.527-.266.317.643.518.277-.308zm-4.176-2.839l-.748-.393-.196.361.736.387.209-.355zm1.456.858l-.72-.44-.221.348.708.433.232-.341zm-6.133-2.855l-.815-.244-.119.392.802.24.132-.388zm-21.171 2.689l-.218-.349-.723.436.23.342.711-.429zm-1.407.881l-.242-.335-.691.482.253.327.68-.474zm4.389-2.364l-.168-.374-.776.34.181.369.763-.334zm-1.517.694l-.194-.363-.751.389.206.356.739-.382zm-5.486 3.69l-.286-.301-.618.564.296.291.607-.555zm1.272-1.051l-.265-.318-.654.523.275.31.644-.515zm10.429-5.216l-.83.187.103.396.817-.184-.09-.399zm1.679-.296l-.841.134.076.401.827-.132-.062-.404zm24.685 10.035l-.343.239.259.351.434-.112-.35-.478zM31.963 15.25l-.116-.392-.816.239.13.389.803-.235zm-1.598.495l-.143-.384-.798.29.156.379.785-.285zm-10.877 7.314l-.325-.262-.536.638.333.251.527-.628zm39.533.73l.334-.25-.532-.639-.326.261.523.629zm-.752-1.513l-.575-.605-.307.281.566.595.316-.271zm-27.056 4.038l-.217-.35-.719.441.237.338.7-.429zm12.013-1.46l.789.249.143-.384-.811-.256-.121.391zm-17.593 6.298l.364.208.443-.676-.351-.227-.456.695zm9.8-6.493l.398-.087-.088-.399-.409.089-.405.099-.015.004.11.394.015-.004.394-.096zm12.252 2.292l.662.481.264-.319-.681-.494-.245.332zm-1.198-1.211l-.206.356.713.409.226-.345-.733-.42zm-1.697-.346l.755.331.185-.367-.776-.34-.164.376zm-2.27-1.144l-.836-.168-.075.402.813.164.098-.397zm-17.678 8.361l.385.169.364-.719-.375-.189-.374.739zm4.74-5.727l-.663.514.274.311.645-.5-.256-.325zm4.514-2.283l-.802.278.154.38.78-.27-.132-.387zm4.185-.74l.019.408.829-.013.005-.408c-.283-.003-.57.001-.852.014zm-1.633.567l.823-.101-.042-.406-.846.104.065.403zm-4.907 1.133l.197.361.744-.352-.175-.371-.766.361zm-4.057 2.969l.308.28.585-.566-.291-.296-.601.582zm13.154-4.572l-.851-.078-.028.407.827.076.052-.405zm-14.254 5.829l.338.246.517-.625-.323-.263-.532.642zm-1.679 3.732l-.395-.148-.224.589.497-.128.122-.313zm11.169-6.957l-.823-1.073-.156 1.326-1.313.423 1.26.553.011 1.335.934-.985 1.32.402-.682-1.161.804-1.086-1.356.267zm4.526-.236l-.631-.823-.12 1.017-1.007.324.966.424.009 1.023.717-.755 1.012.308-.523-.89.617-.833-1.04.205zm3.464 2.158l.648.197.067-.017-.357-.607.453-.611-.763.15-.463-.604-.088.747-.739.238.709.311.006.698.067-.017.459-.484z" fill="#3a9b2c"/><path d="M43.604 28.968l-.066.017v.052l.066-.069zm1.204-.257l-.027-.047-.068.017.095.029zm-13.005-.112l-.631-.823-.12 1.017-1.007.324.966.424.009 1.023.716-.755 1.012.308-.523-.89.617-.833-1.04.205zm-2.631 3.734l.648.197.068-.017-.357-.607.453-.612-.763.15-.463-.604-.088.747-.739.238.709.311.006.698.068-.017.459-.484z" fill="#3a9b2c"/><path d="M29.916 32.559l-.027-.047-.068.018.095.029zm-1.204.257l-.066.017v.052l.066-.069zM20.21 55.913l.596.586.297-.291-.586-.576-.307.281zm-1.131-1.227l.554.622.316-.271-.545-.612-.325.261zm2.343 2.38l.635.546.277-.309-.625-.538-.287.3zm1.29 1.074l.671.505.255-.326-.66-.497-.266.318zm1.361.99l.705.462.232-.341-.693-.455-.244.334zm-5.695-5.98l-.343.239.51.656.334-.25-.502-.645zm7.342 6.534l-.22.348.735.416.208-.355-.723-.41zm25.637.464l.206.356.737-.413-.219-.349-.724.406zm-1.491.743l.181.369.764-.365-.194-.363-.751.359zm2.928-1.58l.231.342.707-.46-.242-.334-.695.452zm1.376-.927l.254.326.671-.502-.265-.318-.661.494zm-5.843 3.152l.156.379.787-.315-.169-.374-.774.31zm7.149-4.162l.276.309.636-.544-.286-.301-.626.536zm1.234-1.093l.296.291.598-.584-.306-.282-.588.575zm-9.964 5.802l.13.388.807-.265-.143-.384-.794.26zm-8.272 1.595l.853.001-.007-.408a26.01 26.01 0 0 1-.838-.001l-.008.408zm3.407-.161l.845-.108-.063-.403-.831.106.049.405zm1.688-.243l.836-.161-.09-.399-.822.159.076.401zm1.564-.745l.103.396.389-.098.434-.116-.116-.392-.81.21zm-4.952 1.123l.85-.054-.035-.406-.837.053.021.407zm22.864-15.951l-.395-.146-.314.75.39.159.319-.763zm-1.414 2.075l.378.183.37-.741-.384-.171-.364.729zm2.428-5.22l-.413-.095-.209.784.409.108.213-.798zm.572-3.25l-.422-.041-.099.805.42.055.101-.819zm-5.69 12.565l.333.251.513-.655-.342-.241-.505.645zm.989-1.307l.35.229.468-.687-.358-.219-.46.676zm.898-1.367l.365.207.42-.715-.371-.195-.413.704zm3.574-8.257l-.418-.068-.155.797.416.082.158-.81zm-6.536 12.172l.316.272.556-.621-.325-.262-.547.611zm5.739-8.967l-.404-.121-.262.769.4.134.266-.782zM33.386 63.097l.837.164.078-.401-.823-.162-.091.398zm-4.863-1.539l.786.32.158-.378-.773-.315-.171.373zm1.583.615l.806.27.132-.388-.793-.265-.145.383zm6.661 1.42l.853.056.022-.408-.839-.055-.036.406zm-1.7-.194l.847.111.05-.405-.833-.109-.064.403zm-8.082-2.556l.762.369.184-.368-.749-.363-.196.361zm4.745 1.844l.823.218.105-.395-.81-.214-.119.392zm-.824-11.614l-.689-.445-.245.333.708.457.226-.345zm1.449.779l-.736-.37-.206.356.756.38.185-.367zm17.553-3.098l.308.28.567-.614-.323-.263-.551.597zm-16.021 3.719l-.774-.29-.164.376.795.298.142-.384zm17.921-5.367l-.351-.227-.48.652.338.245.494-.67zm1.577-2.914l-.394-.148-.322.737.385.169.331-.758zm-.705 1.499l-.375-.189-.404.699.364.209.415-.718zm-23.391 4.775l.264-.319-.304-.24-.495.128.536.431zm13.7 2.738l.817-.236-.132-.387-.795.229.11.394zm-1.668.342l.838-.149-.088-.399-.816.145.065.403zm-5.841-.618l-.802-.206-.12.391.825.212.098-.397zm14.134-3.311l-.292-.296-.616.535.275.31.633-.549zm-12.499 3.594l-.821-.119-.075.402.844.123.051-.405zm10.945-2.854l-.672.465.237.338.691-.479-.256-.325zm-10.144 3.336l.852.032.005-.408-.828-.031-.028.407zm1.707.017l.85-.059-.042-.406-.827.058.019.408zm4.986-1.02l.785-.321-.176-.371-.763.312.154.38zm1.355-1.046l.197.361.743-.403-.217-.35-.723.392zm-3.168-.886l1.313-.423-1.26-.553-.011-1.335-.935.985-1.32-.402.682 1.161-.805 1.086 1.356-.267.823 1.073.156-1.326zm3.292-1.784l.631.823.12-1.017 1.007-.324-.966-.424-.009-1.023-.716.755-1.012-.309.523.891-.617.833 1.04-.205zm1.82-2.695l.763-.15.463.604.088-.747.739-.238-.709-.311-.006-.698-.067.017-.459.484-.648-.197-.067.017.357.607-.453.612z" fill="#3a9b2c"/><path d="M47.977 45.014l.028.046.068-.017-.096-.029zm1.267-.328l-.066.069.066-.017-.001-.052zm-11.952 6.561l.631.823.12-1.017 1.007-.324-.966-.424-.008-1.024-.717.755-1.012-.308.523.891-.617.833 1.04-.205zm-4.276-1.119l.763-.15.463.604.088-.747.739-.238-.709-.311-.006-.698-.068.018-.459.484-.648-.197-.068.017.357.607-.453.612z" fill="#3a9b2c"/><path d="M33.084 48.863l.028.047.068-.017-.096-.029zm1.268-.328l-.066.069.066-.017v-.052zM20.31 32.151l-.677-.233.624-1.687 1.601.551c.104.221.161.508.171.862a2.67 2.67 0 0 1-.162 1.01c-.15.406-.369.728-.657.969s-.624.381-1.008.419a2.71 2.71 0 0 1-1.155-.141c-.419-.144-.759-.357-1.022-.637s-.421-.615-.474-1.001c-.041-.294.006-.627.143-.997.178-.481.422-.821.731-1.02a1.55 1.55 0 0 1 1.061-.224l-.137.829a.93.93 0 0 0-.581.147c-.17.111-.297.28-.38.506-.127.342-.115.653.035.932s.447.495.889.647c.477.164.873.185 1.187.062s.532-.349.655-.681c.06-.164.088-.34.082-.528s-.034-.357-.086-.508l-.51-.176-.332.896zm-1.21-3.89l.467-.698 1.942 1.208.617.347a.71.71 0 0 0 .496.006c.164-.058.311-.183.442-.378s.19-.374.174-.526a.56.56 0 0 0-.188-.374c-.109-.096-.305-.233-.589-.409l-1.984-1.234.467-.698 1.884 1.172c.431.268.722.476.875.624a1.15 1.15 0 0 1 .31.489c.055.177.061.374.02.589s-.153.459-.336.733c-.221.33-.428.556-.621.677s-.386.192-.579.213-.369.003-.528-.051c-.236-.082-.555-.248-.956-.498l-1.913-1.19zm8.614-3.646l-.669.633-.945-.416-1.218 1.151.427.905-.653.617-1.8-4.061.651-.615 4.208 1.785zm-2.315-.092l-1.528-.694.697 1.48.832-.786zm2.54-.022l-2.254-3.494 1.54-.924c.387-.232.689-.37.905-.412s.428-.015.637.082.38.249.513.456c.169.262.229.527.179.793s-.219.518-.509.753c.216-.006.409.014.581.058s.433.151.783.318l.882.416-.875.525-1.019-.443-.717-.282c-.115-.029-.22-.034-.314-.013s-.226.081-.394.182l-.148.089.941 1.459-.732.439zm-.569-2.455l.541-.325c.351-.21.561-.356.63-.437a.44.44 0 0 0 .11-.271.52.52 0 0 0-.095-.307c-.076-.118-.17-.193-.281-.226s-.233-.024-.364.028c-.064.028-.245.13-.542.308l-.571.343.572.887z" fill="#3a9b2c"/><path d="M35.081 21.26l-.885.297-.67-.765-1.611.54-.014.994-.863.29.168-4.413.861-.289 3.015 3.346zm-2.053-1.035l-1.075-1.256-.024 1.625 1.1-.369zm2.311 1.025l-.478-4.089.833-.091 2.055 2.542-.319-2.731.795-.087.478 4.089-.859.093-2.021-2.48.312 2.666-.796.087zm5.034-.26l.323-3.405-1.261-.111.066-.693 3.377.298-.066.693-1.258-.111-.323 3.405-.858-.076zm2.473.266l1.203-3.948 3.036.86-.204.668-2.209-.626-.267.875 2.055.582-.203.665-2.055-.582-.328 1.075 2.287.648-.203.665-3.114-.883zm3.601 1.088l2.009-3.631 2.792 1.436-.34.614-2.032-1.045-.445.805 1.89.972-.338.612-1.89-.972-.547.988 2.103 1.082-.338.612-2.864-1.473zm6.06-1.383l1.2.983c.271.222.459.411.566.567a1.35 1.35 0 0 1 .236.69 1.74 1.74 0 0 1-.137.763c-.106.259-.288.535-.547.829-.227.258-.457.453-.688.586a1.93 1.93 0 0 1-.836.269c-.208.014-.435-.029-.682-.128-.184-.075-.397-.211-.64-.41l-1.236-1.012 2.763-3.137zm.189 1.069l-1.83 2.077.49.402c.183.15.324.249.424.295a.82.82 0 0 0 .38.087c.124-.004.27-.058.439-.162s.359-.277.573-.52.355-.447.425-.613.097-.318.081-.456-.074-.27-.174-.397c-.074-.095-.245-.252-.513-.471l-.295-.241zM26.044 54.647l.449-.541 1.45 1.119-1.062 1.28c-.25.022-.55-.019-.901-.125a2.87 2.87 0 0 1-.937-.477c-.349-.269-.594-.574-.736-.915a1.67 1.67 0 0 1-.082-1.056c.087-.363.259-.699.515-1.007a2.45 2.45 0 0 1 .958-.724 1.95 1.95 0 0 1 1.135-.105c.302.058.612.21.931.456.414.319.668.652.761.999s.052.694-.127 1.04l-.768-.395a.84.84 0 0 0 .045-.578c-.054-.191-.178-.362-.372-.511-.294-.227-.602-.317-.925-.271s-.631.246-.924.599c-.316.382-.466.735-.448 1.062s.169.599.454.819c.141.109.304.191.49.247a1.92 1.92 0 0 0 .526.087l.338-.407-.771-.595zm3.515-.713l.776.362-1.006 2.006-.282.632c-.043.167-.025.326.054.476s.227.276.443.377.408.137.563.102.276-.11.362-.226a4.59 4.59 0 0 0 .35-.613L31.847 55l.776.362-.976 1.946c-.223.445-.402.749-.536.913a1.2 1.2 0 0 1-.465.357c-.176.074-.377.104-.604.091s-.491-.09-.795-.232c-.367-.171-.625-.342-.773-.512s-.245-.346-.29-.528-.048-.352-.011-.512c.056-.236.188-.561.396-.976l.991-1.976zm6.329 6.492l-.911-.213-.134-.993-1.658-.388-.571.828-.888-.208 2.621-3.622.885.207.655 4.387zm-1.144-1.943l-.198-1.618-.933 1.353 1.132.265zm2.18 2.03l.091-4.114 1.813.037c.456.009.786.053.991.131s.367.213.488.405a1.15 1.15 0 0 1 .172.652c-.007.309-.106.562-.299.759s-.477.319-.852.363a2.01 2.01 0 0 1 .454.355c.118.128.277.354.476.678l.503.813-1.03-.021-.603-.908-.441-.614a.66.66 0 0 0-.255-.176c-.09-.033-.235-.051-.433-.055l-.175-.004-.038 1.717-.862-.017zm.914-2.357l.637.013c.413.008.672-.003.775-.035a.46.46 0 0 0 .245-.169c.06-.081.091-.183.094-.307.003-.138-.033-.251-.108-.338s-.182-.142-.321-.168c-.07-.011-.279-.02-.629-.027l-.672-.014-.023 1.044zm7.731 1.587l-.92.175-.553-.847-1.674.319-.158.982-.896.171.804-4.348.894-.17 2.502 3.718zm-1.883-1.301l-.884-1.388-.259 1.605 1.142-.217zm2.86.962l-1.697-3.776.769-.322 2.736 1.852-1.133-2.522.735-.307 1.697 3.776-.793.332-2.685-1.802 1.107 2.462-.735.307zm5.135-2.523l-2.021-2.809-1.041.696-.411-.572 2.787-1.864.411.572-1.038.694 2.021 2.809-.708.474zm2.548-1.839l-3.054-2.874 2.21-2.184.517.486-1.609 1.589.677.638 1.496-1.479.515.484-1.497 1.479.831.782 1.665-1.645.515.484-2.267 2.24zm3.044-3.2l-3.586-2.23 1.715-2.564.607.377-1.248 1.866.795.495 1.162-1.736.604.376-1.161 1.736.976.607 1.293-1.932.604.376-1.76 2.63zm-1.636-5.191l.554-1.422c.125-.321.246-.556.362-.705a1.42 1.42 0 0 1 .595-.447 1.92 1.92 0 0 1 .79-.133c.287.009.619.08.994.216.329.119.597.261.804.426.253.202.434.425.545.669.084.184.119.405.106.662-.011.192-.072.432-.184.719l-.571 1.463-3.994-1.449zm.979-.533l2.645.959.227-.581c.085-.217.133-.378.145-.484a.73.73 0 0 0-.044-.374c-.046-.112-.148-.226-.306-.343s-.392-.232-.701-.344-.556-.172-.742-.179-.343.019-.473.081a.81.81 0 0 0-.328.292c-.068.099-.164.308-.287.625l-.136.349z" fill="#3a9b2c"/><path d="M70.911 30.526l3.23-8.921-7.804 2.017-4.668 1.206-12.066 3.118-.483.125-37.092 9.585-4.672 1.207-7.8 2.016 7.422 6.168-3.23 8.921 7.796-2.015 4.675-1.208 1.141-.295.431-.111 35.52-9.179.483-.125 10.492-2.711.431-.111 1.141-.295 4.668-1.206 7.804-2.017-7.422-6.168zm1.353-7.845l.81-.209.06.214-.811.209-.059-.214zm-1.621.419l.81-.209.059.214-.81.21-.059-.214zm-1.621.419l.81-.209.059.214-.81.209-.059-.214zm-67.221 17.6l-.811.209-.059-.214.811-.209.059.214h0zm1.621-.419l-.811.209-.059-.214.811-.209.059.214zm1.621-.419l-.811.209-.059-.213.811-.21.059.214zm.598 14.661l-.811.21-.059-.214.811-.21.059.214h0zm1.621-.419l-.811.21-.059-.214.811-.209.059.213zm1.621-.419l-.811.209-.059-.214.811-.209.059.214zm56.895-29.747l.481-.124.33-.085.059.214-.463.12-.347.09-.059-.214zm-1.621.419l.811-.209.059.214-.811.209-.059-.214zm-1.621.419l.81-.21.06.214-.811.21-.059-.214zm-1.574.589l-.047-.17.811-.209.059.214-.797.206-.013.003-.013-.044zm-1.668.249l.811-.209.059.214-.81.209-.06-.214zm-1.621.419l.811-.209.059.214-.81.209-.059-.214zm-1.621.419l.81-.209.06.214-.811.209-.059-.214zm-1.621.419l.81-.209.06.214-.811.209-.059-.214zm-1.622.419l.811-.209.059.214-.81.21-.06-.214zm-1.621.419l.81-.209.059.214-.811.209-.059-.214zm-3.243.838l.811-.209.059.214-.811.209-.059-.214zm-1.621.419l.811-.21.059.214-.811.209-.059-.214zm-1.621.419l.81-.21.06.214-.811.21-.059-.214zm-1.621.419l.811-.21.059.214-.81.209-.06-.214zm-1.621.419l.811-.209.059.214-.81.209-.06-.214zm-1.621.419l.81-.209.059.214-.811.209-.059-.214zm-1.621.419l.81-.209.06.214-.811.209-.059-.214zm-1.622.419l.811-.209.059.214-.81.209-.06-.214zm-1.621.419l.811-.21.059.214-.81.21-.06-.214zm-1.621.419l.811-.209.059.214-.811.209-.059-.214zm-1.621.419l.811-.209.059.214-.811.209-.059-.214zm-1.621.419l.81-.209.059.214-.811.209-.059-.214zm-4.864 1.257l.811-.209.059.214-.811.209-.059-.214zm-1.621.419l.286-.074.47-.121.055-.014.059.214-.18.046-.465.12-.165.043-.059-.214zm-1.621.419l.811-.21.059.214-.811.21-.059-.214zm-1.621.419l.811-.21.059.214-.811.209-.059-.213zm-1.621.419l.811-.209.059.214-.811.209-.059-.214zm-1.621.419l.811-.209.059.214-.811.209-.059-.214zm-1.621.419l.811-.21.059.214-.811.21-.059-.214zm-1.621.419l.811-.21.059.214-.811.209-.059-.213zm-1.621.419l.811-.209.047.169.012.044-.013.003-.797.206-.059-.214zm-3.242.838l.811-.21.059.214-.811.21-.059-.214zm-1.621.419l.328-.085.482-.125.059.214-.347.09-.463.12-.059-.213zm3.089 14.246l-.811.209-.059-.214.811-.209.059.214zM6.664 39.861l-.811.21-.059-.214.811-.209.059.213zm5.462 13.404l-.523.135-.288.075-.059-.214.422-.109.389-.101.059.214h0zm1.621-.419l-.811.21-.059-.214.811-.209.059.214zm-.789-4.046l-1.075.278-1.265-4.553A3.68 3.68 0 0 1 9.483 45.8l-.305-1.096c.252-.176.503-.45.752-.823s.382-.767.397-1.183l.873-.225 1.758 6.328h0zm2.41 3.627l-.811.209-.059-.214.811-.209.059.214zm-3.841-13.823l-.811.209-.059-.213.811-.21.059.214zm5.462 13.404l-.811.209-.059-.214.81-.209.059.214zm1.621-.419l-.811.209-.059-.213.811-.21.059.214zm-1.105-4.54a1.48 1.48 0 0 1-1.091.973c-.543.14-1.052.019-1.517-.366s-.866-1.182-1.202-2.392c-.33-1.187-.383-2.088-.161-2.705a1.48 1.48 0 0 1 1.092-.973 1.55 1.55 0 0 1 1.456.324c.508.422.928 1.23 1.26 2.425s.386 2.097.163 2.714zm2.727 4.121l-.81.21-.059-.214.811-.209.059.213zm1.621-.419l-.811.209-.059-.214.811-.209.059.214zm1.621-.419l-.81.209-.059-.214.811-.209.059.214zm-1.609-4.41a1.48 1.48 0 0 1-1.091.973c-.543.14-1.052.019-1.517-.366s-.866-1.182-1.202-2.392c-.33-1.187-.383-2.088-.161-2.704a1.48 1.48 0 0 1 1.092-.973 1.55 1.55 0 0 1 1.456.324c.508.422.928 1.23 1.26 2.425s.386 2.097.163 2.713zm3.231 3.991l-.811.209-.059-.213.811-.21.059.214zm-2.441-7.358c-.296-.214-.523-.605-.68-1.172s-.163-1.011-.018-1.341.406-.543.784-.641c.39-.101.734-.044 1.03.169s.523.604.681 1.172.163 1.011.018 1.341-.406.543-.784.64c-.39.101-.734.045-1.03-.169zm3.098-3.931l.773-.2-1.119 7.417-.796.206 1.142-7.423zm.964 10.87l-.811.21-.059-.214.811-.21.059.214zm1.621-.419l-.025.006-.471.122-.315.081-.059-.214.194-.05.466-.121.151-.039.059.214zm1.621-.419l-.811.209-.059-.214.811-.209.059.214zm-.779-4.215c-.145.33-.407.543-.784.641-.39.101-.734.043-1.03-.172s-.523-.607-.681-1.174-.163-1.012-.018-1.341.409-.543.792-.642.726-.042 1.023.173.523.605.68 1.17.164 1.016.019 1.345zm2.4 3.796l-.811.209-.059-.213.811-.21.06.214zm-3.84-13.822l-.811.209-.059-.214.811-.209.059.214zm5.462 13.404l-.811.21-.059-.214.81-.21.06.214zm-3.841-13.823l-.811.209-.059-.214.811-.209.059.214zM34.823 47.4l-.811.209-.059-.214.81-.209.059.214zm1.621-.419l-.81.209-.06-.214.811-.209.059.214zm1.621-.419l-.81.21-.06-.214.811-.21.059.214zm-.932-4.009l-1.137.294-3.404-3.525 1.142 4.11-1.053.272-1.751-6.302 1.102-.285 3.466 3.615-1.169-4.209 1.052-.272 1.751 6.302h0zm2.553 3.59l-.81.21-.059-.214.81-.21.059.214zm1.621-.419l-.81.209-.059-.214.81-.209.059.214zm1.622-.419l-.811.209-.059-.214.811-.209.059.214zm-1.658-5.356l-2.243.58-.065 1.551-1.202.311.434-6.867 1.198-.309 3.998 5.721-1.232.319-.888-1.305zm3.279 4.937l-.811.21-.059-.214.81-.21.06.214zm1.621-.419l-.81.21-.06-.214.811-.21.059.214zm1.621-.419l-.81.209-.06-.214.811-.209.059.214zm-1.78-9.402l-1.661.429 1.455 5.236-1.133.293-1.455-5.236-1.665.43-.296-1.066 4.459-1.152.296 1.066zm3.401 8.983l-.811.209-.059-.214.81-.209.06.214zm1.621-.419l-.811.209-.059-.213.81-.21.06.214zm1.621-.419l-.81.21-.059-.214.811-.21.059.214zm-1.105-4.054c-.24.199-.582.356-1.026.47-.536.139-.962.174-1.277.107a1.89 1.89 0 0 1-.807-.372c-.223-.18-.393-.386-.512-.617-.174-.342-.359-.865-.555-1.57l-.934-3.362 1.133-.293.948 3.414.335 1.042a1.11 1.11 0 0 0 .519.532c.226.109.497.123.813.041.322-.083.544-.22.666-.409s.17-.397.144-.62-.109-.585-.248-1.084l-.969-3.486 1.133-.293.92 3.31c.21.757.328 1.299.354 1.627s-.014.621-.119.879-.277.486-.517.684zm2.726 3.635l-.671.173-.114.03-.025.007-.06-.214.811-.209.059.214zM50.437 28.55l-.811.209-.059-.214.81-.209.06.214zm5.462 13.404l-.81.209-.059-.214.81-.209.059.214zm1.621-.419l-.81.209-.059-.214.81-.21.059.214zm-2.021-6.19c-.143-.1-.28-.158-.414-.174s-.33.009-.59.076l-.23.059.731 2.631-1.133.293-1.751-6.302 2.385-.616c.599-.155 1.051-.211 1.354-.168s.577.188.821.435.417.557.521.93c.131.473.116.895-.046 1.267s-.478.662-.948.87a2.89 2.89 0 0 1 .753.372c.213.151.523.436.929.857l1.027 1.052-1.355.35-1.2-1.16-.854-.772zm3.643 5.771l-.811.21-.059-.214.81-.21.06.214zm1.621-.419l-.811.209-.059-.214.81-.209.06.214zm1.621-.419l-.81.209-.06-.214.811-.209.059.214zm1.621-.419l-.81.209-.06-.213.811-.21.059.214zm1.621-.419l-.811.21-.059-.214.81-.21.059.214zm-1.978-3.738l-.888-1.305-2.243.58-.065 1.551-1.202.311.435-6.867 1.198-.31 3.998 5.722-1.233.319zm3.599 3.32l-.811.209-.059-.214.81-.209.06.214zm1.621-.419l-.81.209-.06-.214.811-.209.059.214zm1.621-.419l-.295.076-.516.133-.06-.213.383-.099.428-.111.059.214zM69.462 34.2l-3.95 1.021-1.737-6.251 1.133-.293 1.442 5.189 2.817-.728.295 1.062zm2.649 3.565l-.81.21-.059-.214.811-.21.059.214zM68.27 23.942l-.81.209-.06-.214.811-.209.059.214zm5.462 13.405l-.81.209-.059-.214.81-.209.059.214zm1.621-.419l-.811.209-.059-.214.811-.209.059.214zm1.621-.419l-.811.209-.059-.213.81-.21.06.214zm-16.403-2.684l1.531-.396-1.423-2.139-.108 2.534z" fill="#3a9b2c"/><path d="M15.29 42.64a.52.52 0 0 0-.385-.05.51.51 0 0 0-.309.23c-.076.12-.109.307-.098.562.013.331.122.867.327 1.606s.38 1.239.523 1.498.278.422.404.488a.52.52 0 0 0 .385.048.51.51 0 0 0 .31-.23c.077-.12.109-.307.098-.562-.012-.328-.121-.863-.326-1.602s-.38-1.239-.523-1.498-.278-.423-.405-.49zm7.638-2.562c-.112.029-.186.103-.221.223-.045.162-.011.448.103.858s.232.674.356.793c.092.087.195.116.307.087s.19-.104.225-.224c.043-.162.007-.447-.107-.857s-.231-.673-.351-.789c-.093-.09-.197-.12-.312-.09zm4.713 2.358c-.115.03-.188.104-.221.223-.045.162-.011.448.103.858s.232.673.354.788a.31.31 0 0 0 .308.091c.115-.03.188-.104.221-.223.045-.162.011-.448-.103-.858s-.231-.675-.352-.794c-.092-.087-.196-.115-.311-.085zm11.441-3.058l1.531-.396-1.423-2.139-.108 2.535zm16.982-5.983c.041-.146.036-.314-.017-.503-.059-.212-.157-.37-.294-.474a.71.71 0 0 0-.495-.137c-.096.009-.373.074-.832.192l-.884.228.445 1.599.838-.216c.543-.14.876-.254.997-.34a.63.63 0 0 0 .244-.349zm-36.415 8.118a.52.52 0 0 0-.385-.05.51.51 0 0 0-.309.23c-.076.119-.109.307-.098.562.013.332.122.867.327 1.607s.38 1.239.523 1.498.278.422.404.488a.52.52 0 0 0 .385.048.51.51 0 0 0 .309-.23c.076-.12.109-.307.098-.562-.012-.328-.121-.862-.326-1.602s-.38-1.239-.523-1.498-.278-.423-.405-.49z" fill="#3a9b2c"/></g></svg>