<svg xmlns="http://www.w3.org/2000/svg" width="79" height="78" fill="none" xmlns:v="https://vecta.io/nano"><mask id="A" maskUnits="userSpaceOnUse" x="0" y="0" width="79" height="78" mask-type="alpha"><path d="M78.502.281H.61v77.597h77.892V.281z" fill="#c4c4c4"/></mask><g mask="url(#A)"><path d="M32.085 7.803l3.091 2.347 2.131-3.266 2.663 2.791 2.629-2.914 2.169 3.166 3.062-2.49 1.622 3.463 3.42-2.005 1.035 3.674 3.694-1.471.423 3.796 3.877-.9-.201 3.824 3.964-.307-.819 3.757 3.954.293-1.417 3.599 3.846.886-1.979 3.352 3.643 1.457-2.494 3.021 3.351 1.993-2.947 2.617 2.977 2.48-3.327 2.148 2.529 2.904-3.626 1.627 2.019 3.259-3.834 1.065 1.459 3.532-3.949.477.864 3.718-3.967-.123.246 3.814-3.886-.72-.377 3.815-3.711-1.298-.991 3.721-3.443-1.846-1.581 3.537-3.091-2.347-2.131 3.266-2.662-2.79-2.629 2.913-2.169-3.166-3.062 2.49-1.622-3.463-3.42 2.005-1.035-3.675-3.694 1.471-.422-3.796-3.877.9.201-3.824-3.964.307.819-3.757-3.954-.293 1.417-3.599-3.846-.886 1.98-3.352-3.644-1.458 2.494-3.021-3.352-1.993 2.947-2.617-2.977-2.479 3.327-2.148-2.529-2.905 3.625-1.627-2.019-3.258 3.834-1.065-1.459-3.532 3.949-.477-.863-3.719 3.966.123-.246-3.813 3.886.72.377-3.815 3.71 1.299.991-3.722 3.443 1.846 1.58-3.537z" fill="#f26522"/><path d="M59.389 58.651c10.691-10.65 10.691-27.918 0-38.568s-28.024-10.65-38.715 0-10.691 27.918 0 38.568 28.024 10.65 38.715 0z" fill="#fff"/><path d="M58.357 57.622c10.121-10.082 10.121-26.429 0-36.511s-26.529-10.082-36.65 0-10.121 26.429 0 36.511 26.529 10.082 36.65 0z" fill="#f26522"/><path d="M40.016 65.354c-2.872 0-5.707-.472-8.43-1.404a26.2 26.2 0 0 1-7.427-3.968 25.92 25.92 0 0 1-5.812-6.17c-1.639-2.442-2.844-5.136-3.581-8.008-.872-3.398-1.051-6.865-.53-10.303.503-3.322 1.634-6.478 3.361-9.38a25.92 25.92 0 0 1 6.647-7.44 25.96 25.96 0 0 1 9.327-4.484 26.27 26.27 0 0 1 6.481-.816c2.869 0 5.705.472 8.428 1.404 2.678.916 5.177 2.251 7.427 3.968a25.91 25.91 0 0 1 5.812 6.17 25.87 25.87 0 0 1 3.581 8.008 25.73 25.73 0 0 1 .53 10.304c-.503 3.322-1.634 6.478-3.361 9.38s-3.963 5.406-6.647 7.44c-2.778 2.106-5.916 3.615-9.327 4.484-2.125.542-4.305.816-6.478.816zm.035-51.647c-2.147 0-4.299.271-6.399.806a25.57 25.57 0 0 0-15.772 11.774 25.4 25.4 0 0 0-2.796 19.436c2.918 11.365 13.169 19.303 24.93 19.304 2.147 0 4.299-.271 6.399-.806 6.664-1.698 12.265-5.879 15.772-11.775s4.5-12.797 2.796-19.436c-2.917-11.366-13.168-19.304-24.929-19.304z" fill="#f26522"/><path d="M18.732 30.222l-.004.009.021.674-.564-.112-.019-.936.247-.562 2.934 1.281-.291.661-2.325-1.015zm2.851-3.356c.844.506 1.225 1.199.806 1.893-.427.706-1.253.635-2.032.174-.798-.479-1.222-1.186-.795-1.892.439-.728 1.269-.626 2.021-.175zm-.84 1.427c.629.377 1.02.406 1.168.162s-.081-.57-.706-.945c-.608-.364-1.008-.427-1.163-.17-.14.232.059.569.701.954zm2.582-3.66c.772.61 1.061 1.346.556 1.981-.515.646-1.324.47-2.038-.087-.73-.577-1.059-1.332-.545-1.978.53-.666 1.34-.458 2.027.085zm-1.016 1.308c.575.455.96.533 1.137.31s-.007-.576-.579-1.027c-.556-.439-.945-.552-1.131-.318-.168.212-.014.572.573 1.035zm2.104-3.355c.45.495.374 1.04.031 1.35-.361.326-.891.315-1.298-.133-.384-.422-.416-.976-.007-1.346s.907-.275 1.274.128zm-.864.834c.221.25.471.35.632.205s.088-.371-.157-.64c-.218-.24-.453-.366-.628-.208-.164.148-.065.403.153.644zm1.819 1.479l-.856-3.674.296-.267.86 3.67-.299.27zm1.648-2.874c.447.491.371 1.036.028 1.347-.358.323-.887.311-1.291-.133-.384-.422-.416-.976-.011-1.342s.907-.276 1.274.128zm-.864.826c.221.251.471.35.628.208s.088-.371-.154-.637c-.219-.24-.453-.366-.625-.211-.164.148-.065.404.15.64zm4.952-2.273a3.76 3.76 0 0 1-.876.702c-.529.295-.986.375-1.395.27s-.762-.403-1-.827c-.534-.962-.141-1.901.81-2.431.374-.208.704-.296.881-.311l.158.604c-.2.016-.423.072-.741.25-.546.304-.793.841-.439 1.471.337.6.91.736 1.448.437.146-.081.257-.166.297-.216l-.341-.609-.447.249-.286-.51 1.08-.601.853 1.521zm.058-3.419l.656 1.784c.198.539.506.736.863.605.37-.135.479-.468.276-1.021l-.656-1.784.703-.257.641 1.742c.352.959.035 1.593-.781 1.89-.787.287-1.406.016-1.768-.971l-.637-1.733.704-.257zm3.941 1.348l-.06.88-.758.155.319-3.444.965-.198 1.685 3.032-.796.164-.423-.78-.932.191zm.712-.718l-.345-.646-.294-.591-.01.002-.02.656-.051.728.719-.148zm1.569-2.132a6.52 6.52 0 0 1 .994-.128c.492-.03.841.024 1.088.196.211.145.333.374.352.678.025.416-.258.724-.537.844v.015c.237.079.378.287.48.586l.322.92-.768.046c-.055-.095-.155-.355-.272-.756-.118-.411-.268-.51-.578-.497l-.221.013.078 1.299-.743.044-.196-3.259zm.828 1.377l.295-.018c.374-.022.584-.222.567-.511-.018-.299-.234-.443-.578-.423-.182.011-.284.027-.338.045l.054.907zm3.058.963l-.308.826-.771-.066 1.291-3.211.982.084.747 3.385-.81-.069-.182-.868-.948-.081zm.888-.486l-.146-.717-.112-.65h-.01l-.207.623-.257.683.732.063zm1.365 1.565l.791-3.214.852.208.38 1.342a10.47 10.47 0 0 1 .255 1.23l.009.003c.062-.435.154-.872.274-1.359l.23-.934.67.164-.791 3.214-.766-.187-.384-1.408a11.24 11.24 0 0 1-.28-1.272l-.019-.005-.313 1.415-.238.968-.67-.165zm4.779-1.404l-.832-.335.236-.583 2.367.952-.236.583-.841-.338-1.008 2.485-.694-.279 1.007-2.485zm3.2 2.986l-1.067-.594-.384.686 1.192.663-.3.536-1.845-1.027 1.62-2.889 1.785.994-.301.536-1.131-.63-.336.6 1.067.594-.298.531zm2.206 1.559l-.985-.721-.467.633 1.1.805-.365.495-1.704-1.247 1.966-2.667 1.648 1.206-.365.495-1.045-.764-.408.554.985.721-.361.491zm5.09 25.262l.812-2.216.588.214-.259.707 1.779.647.259-.707.55.2a2.58 2.58 0 0 0-.093.316c-.024.107-.032.197-.024.269.01.085.038.159.084.221s.114.112.202.151l-.269.734-2.788-1.013-.253.691-.588-.214zm.112 3.611c-.272-.147-.498-.298-.679-.452a1.57 1.57 0 0 1-.398-.486 1.02 1.02 0 0 1-.106-.54 1.53 1.53 0 0 1 .202-.619 1.54 1.54 0 0 1 .41-.504c.153-.115.326-.184.519-.205s.398.002.624.068a3.88 3.88 0 0 1 .745.319 3.87 3.87 0 0 1 .68.451 1.58 1.58 0 0 1 .393.49 1.02 1.02 0 0 1 .105.548 1.55 1.55 0 0 1-.198.608c-.123.226-.262.395-.415.508a1.05 1.05 0 0 1-.521.2c-.194.021-.398-.002-.625-.07a3.89 3.89 0 0 1-.735-.315zm.431-.79c.389.211.68.326.871.348s.329-.044.412-.196.062-.3-.06-.45-.379-.331-.771-.543c-.384-.207-.672-.322-.868-.344s-.334.042-.416.192-.06.301.064.452.38.332.767.541zm-2.377 3.427c-.247-.186-.449-.368-.605-.547s-.263-.359-.322-.539-.067-.363-.025-.55.139-.381.292-.583a1.55 1.55 0 0 1 .48-.438 1.04 1.04 0 0 1 .543-.126 1.61 1.61 0 0 1 .607.158 3.87 3.87 0 0 1 .689.425 3.87 3.87 0 0 1 .605.546 1.56 1.56 0 0 1 .316.542c.06.188.067.37.023.557s-.139.378-.286.572c-.155.205-.318.353-.486.441a1.06 1.06 0 0 1-.545.121c-.195-.008-.394-.061-.608-.16a3.87 3.87 0 0 1-.68-.419zm.543-.718c.354.266.624.423.811.472s.332.005.437-.133.105-.288.007-.454-.326-.383-.682-.65c-.349-.261-.618-.418-.808-.468s-.336-.007-.44.129-.104.289-.003.457.327.384.678.647zm-5.415 4.295c-.261-.299-.388-.579-.381-.84s.138-.502.392-.722c.262-.226.522-.325.781-.295s.519.192.776.488.382.575.373.837-.142.505-.398.727c-.262.227-.521.323-.778.291s-.512-.195-.765-.485zm.513-.454l.192.199a.69.69 0 0 0 .176.124c.056.026.111.034.165.024s.108-.038.162-.085.094-.1.109-.15.013-.105-.005-.166a.67.67 0 0 0-.099-.191l-.171-.218-.192-.206a.63.63 0 0 0-.172-.117c-.055-.026-.11-.035-.165-.027s-.11.037-.166.085-.09.097-.106.149-.015.109.003.169a.74.74 0 0 0 .092.18 2.25 2.25 0 0 0 .178.228zm2.2 1.379l-.933-3.921.479-.415.934 3.921-.48.415zm.691-2.037c-.261-.299-.388-.579-.381-.84s.138-.502.392-.722c.261-.226.522-.325.781-.295s.518.192.776.488.382.575.374.837-.142.505-.398.727-.521.323-.778.291-.512-.195-.765-.485zm.513-.454l.191.199a.69.69 0 0 0 .176.124c.056.026.111.033.165.024s.108-.038.162-.084a.33.33 0 0 0 .108-.15c.014-.049.013-.105-.005-.166a.67.67 0 0 0-.099-.191 2.53 2.53 0 0 0-.171-.218l-.192-.206c-.051-.048-.108-.087-.172-.117-.055-.027-.11-.036-.165-.027s-.11.037-.166.085a.33.33 0 0 0-.106.149c-.016.052-.015.108.003.168.017.053.048.114.092.181a2.28 2.28 0 0 0 .178.229zm-8.728 2.851a3.71 3.71 0 0 1 .93-.63c.551-.251 1.013-.295 1.412-.158s.727.461.931.903c.455 1.002-.012 1.907-1.002 2.359-.39.178-.725.24-.904.24l-.109-.615c.201 0 .427-.038.759-.19.569-.26.857-.775.555-1.431-.288-.625-.848-.806-1.408-.551-.152.07-.269.145-.313.191l.292.634.466-.213.244.531-1.124.513-.729-1.584zm-.33 3.404l-.511-1.83c-.155-.554-.446-.773-.812-.672-.38.106-.515.428-.356.996l.512 1.831-.721.2-.5-1.788c-.275-.984.093-1.59.928-1.822.807-.224 1.403.095 1.686 1.107l.498 1.779-.722.2zm-3.822-1.655l.129-.872.768-.096-.591 3.409-.978.122-1.439-3.156.807-.101.36.811.944-.118zm-.766.659l.293.671.245.612.01-.001.072-.652.108-.721-.728.091zm-1.733 2.004a6.62 6.62 0 0 1-1.002.05c-.493-.009-.836-.089-1.07-.281-.199-.161-.303-.398-.297-.703.008-.417.314-.701.602-.799v-.015c-.23-.098-.354-.316-.431-.622l-.248-.943.769.014c.047.099.126.366.212.775.086.419.227.53.537.54l.222.004.025-1.301.744.014-.062 3.265zm-.717-1.438l-.296-.006c-.374-.007-.6.175-.605.465-.006.299.198.461.543.467.182.003.286-.005.341-.018l.017-.908zm-2.973-1.2l.373-.799.764.126-1.541 3.1-.972-.161-.477-3.433.802.132.114.88.938.155zm-.923.415l.089.726.06.657.01.002.255-.605.31-.66-.724-.12zm-1.235-1.667l-1.044 3.141-.833-.274-.272-1.367c-.077-.393-.129-.845-.157-1.246l-.009-.003c-.096.429-.222.857-.38 1.333l-.304.914-.655-.216 1.044-3.141.749.247.271 1.434.178 1.29.019.006.424-1.386.314-.946.655.215zm-4.877 1.022l.802.399-.282.562-2.283-1.136.282-.562.811.404 1.203-2.398.67.333-1.203 2.398zm-2.951-3.231l1.016.677.438-.653-1.135-.756.343-.51 1.758 1.171-1.846 2.751-1.701-1.132.343-.51 1.078.718.384-.572-1.016-.677.34-.507zm-2.076-1.727l.925.796.515-.594-1.033-.889.403-.464 1.6 1.377-2.172 2.504-1.548-1.332.403-.464.981.844.451-.52-.925-.796.4-.461zm27.738-3.369a17.73 17.73 0 0 0 0-25.137c-6.968-6.941-18.265-6.941-25.232 0a17.73 17.73 0 0 0 0 25.137c6.968 6.941 18.265 6.941 25.232 0zm-12.635 6.403a18.97 18.97 0 0 1-6.153-1.025 19.13 19.13 0 0 1-5.421-2.897c-1.659-1.266-3.086-2.781-4.243-4.503a18.89 18.89 0 0 1-2.614-5.846 18.76 18.76 0 0 1-.386-7.522 18.85 18.85 0 0 1 2.453-6.847 18.93 18.93 0 0 1 4.852-5.432 18.95 18.95 0 0 1 6.809-3.273 19.2 19.2 0 0 1 4.731-.596 18.99 18.99 0 0 1 6.152 1.024 19.11 19.11 0 0 1 5.422 2.897 18.92 18.92 0 0 1 4.243 4.504 18.89 18.89 0 0 1 2.614 5.846c.637 2.48.767 5.011.386 7.521a18.85 18.85 0 0 1-2.453 6.848 18.92 18.92 0 0 1-4.852 5.431c-2.028 1.537-4.318 2.639-6.809 3.273a19.15 19.15 0 0 1-4.729.597zm.026-37.613a18.85 18.85 0 0 0-4.65.586c-9.995 2.546-16.046 12.718-13.49 22.675 2.12 8.257 9.568 14.024 18.112 14.025a18.84 18.84 0 0 0 4.65-.586c9.994-2.546 16.046-12.718 13.49-22.675-2.12-8.258-9.568-14.025-18.112-14.025z" fill="#fff"/><path d="M35.933 22.814l1.306 1.517 1.994-.212-1.045 1.706.819 1.825-1.951-.463-1.489 1.339-.161-1.992-1.739-.997 1.852-.769.414-1.955zm4.989.82l.805.935 1.23-.131-.644 1.052.504 1.125-1.203-.285-.918.826-.099-1.228-1.072-.614 1.142-.474.255-1.205zm-9.41 2.28l.805.935 1.23-.131-.644 1.052.505 1.125-1.203-.285-.918.826-.1-1.228-1.072-.614 1.142-.474.255-1.205zm11.863 23.655l1.306 1.517 1.995-.212-1.045 1.706.819 1.825-1.952-.463-1.489 1.34-.162-1.993-1.739-.997 1.852-.769.414-1.956zm4.99.82l.805.935 1.23-.13-.644 1.052.505 1.125-1.203-.285-.918.826-.099-1.228-1.072-.614 1.142-.474.256-1.206zm-9.41 2.28l.805.935 1.23-.131-.644 1.052.505 1.125-1.203-.285-.918.826-.1-1.228-1.072-.614 1.142-.474.255-1.206zM7.272 36.808C4.44 40.597 3.248 44.548 4.19 48.22s3.892 6.567 8.202 8.537L72.88 41.345c2.832-3.789 4.024-7.74 3.081-11.411s-3.892-6.567-8.202-8.536L7.272 36.808z" fill="#f26522"/><path d="M12.373 56.973l-.066-.03c-4.513-2.062-7.388-5.061-8.316-8.672s.15-7.617 3.115-11.584l.044-.058.07-.018 60.558-15.429.066.03c4.513 2.062 7.389 5.06 8.316 8.672s-.15 7.617-3.116 11.585l-.044.058-.07.018-60.558 15.429zm-4.98-19.984c-2.856 3.845-3.895 7.71-3.004 11.181s3.665 6.363 8.023 8.371l60.347-15.375c2.856-3.846 3.895-7.71 3.004-11.181s-3.664-6.364-8.023-8.371L7.393 36.989z" fill="#f26522"/><path d="M13.382 55.225l-.062-.025c-4.241-1.695-6.907-4.243-7.71-7.37s.308-6.638 3.212-10.153l.043-.052.065-.017 57.739-14.711.063.025c4.242 1.695 6.908 4.243 7.711 7.37s-.308 6.638-3.212 10.153l-.043.051-.065.016-57.74 14.712zM9.096 37.988c-2.785 3.393-3.853 6.76-3.088 9.74s3.324 5.422 7.403 7.067l57.544-14.661c2.786-3.393 3.854-6.759 3.089-9.74s-3.324-5.423-7.403-7.067L9.096 37.988zm5.215 12.258c-.424.108-.814.135-1.17.081a4.55 4.55 0 0 1-1.024-.278l-.56-2.182.127-.032c.378.32.761.542 1.149.666s.74.147 1.055.066a1.59 1.59 0 0 0 .303-.123.8.8 0 0 0 .279-.216c.079-.095.136-.213.17-.355s.026-.316-.027-.522c-.059-.23-.162-.403-.308-.519s-.303-.188-.471-.215l-.664-.08c-.233-.019-.457-.059-.67-.118a2.24 2.24 0 0 1-1.182-.776c-.295-.376-.524-.883-.687-1.52-.22-.859-.18-1.61.122-2.254s.781-1.05 1.439-1.217a3.13 3.13 0 0 1 1.026-.084 3.32 3.32 0 0 1 .991.227l.538 2.096-.123.031a3.03 3.03 0 0 0-.943-.548c-.348-.126-.678-.149-.991-.07a1.19 1.19 0 0 0-.316.127.98.98 0 0 0-.262.244.82.82 0 0 0-.15.35 1.01 1.01 0 0 0 .017.459c.06.234.158.408.294.52s.361.187.678.225l.589.067a3.87 3.87 0 0 1 .622.13 2.23 2.23 0 0 1 1.095.709c.287.341.512.83.675 1.466.234.912.206 1.701-.084 2.366s-.803 1.091-1.539 1.279zm2.474-.808l-.486-9.655 1.517-.387 4.227 8.703-1.432.365-.827-1.786-1.74.443.135 1.962-1.394.355zm2.267-4.347l-1.342-2.883.212 3.171 1.13-.288zm4.604 2.597l-1.907-7.428-1.636.417-.449-1.751 4.663-1.188.449 1.751-1.636.417 1.907 7.428-1.391.354zm6.358-1.62l-2.982.76-.412-1.603.796-.203-1.533-5.973-.796.203-.412-1.603 2.982-.76.411 1.603-.795.202 1.533 5.973.795-.203.412 1.602zm2.675-.504c-.424.108-.814.135-1.17.082a4.58 4.58 0 0 1-1.024-.278l-.56-2.182.127-.032c.378.32.761.542 1.149.666s.74.147 1.055.066a1.57 1.57 0 0 0 .303-.123.8.8 0 0 0 .279-.215.87.87 0 0 0 .17-.355c.035-.142.026-.316-.027-.522-.059-.23-.161-.403-.308-.519s-.303-.188-.471-.215l-.664-.08a3.59 3.59 0 0 1-.67-.118c-.493-.141-.887-.4-1.181-.776s-.524-.882-.687-1.519c-.221-.859-.18-1.61.122-2.254s.782-1.05 1.439-1.217a3.13 3.13 0 0 1 1.026-.084c.354.028.685.104.991.227l.538 2.096-.123.031a3.03 3.03 0 0 0-.943-.548c-.348-.126-.678-.149-.99-.07a1.2 1.2 0 0 0-.316.127c-.089.054-.177.135-.262.244-.07.088-.12.204-.15.35a1.01 1.01 0 0 0 .017.459c.06.234.158.407.294.52s.361.187.678.225l.589.066a3.91 3.91 0 0 1 .622.131c.443.132.808.369 1.095.709s.512.83.676 1.466c.234.912.206 1.701-.084 2.366s-.803 1.091-1.539 1.279zm4.869-9.332l-2.324.592.445 1.732 2.138-.544.449 1.75-2.138.545 1.013 3.945-1.383.352-2.357-9.179 3.708-.944.449 1.751zm2.03 7.396l-.486-9.656 1.517-.387 4.227 8.703-1.431.365-.827-1.786-1.74.444.135 1.962-1.394.355zm2.267-4.347l-1.342-2.883.212 3.171 1.13-.288zm5.974 2.438c-.83.212-1.597-.036-2.299-.744s-1.246-1.815-1.634-3.324c-.373-1.455-.426-2.677-.159-3.667s.817-1.591 1.647-1.802c.221-.056.424-.086.61-.09s.37.011.55.044c.142.029.302.079.478.148l.432.186.562 2.188-.141.036-.344-.29a4.04 4.04 0 0 0-.45-.316 2.19 2.19 0 0 0-.512-.227c-.179-.053-.353-.058-.521-.015a1.05 1.05 0 0 0-.512.298c-.141.147-.253.37-.337.667-.079.27-.111.615-.097 1.036s.091.903.23 1.446c.147.571.316 1.039.507 1.405s.392.648.602.848c.203.194.406.319.609.377a1.08 1.08 0 0 0 .57.019 1.02 1.02 0 0 0 .485-.285c.14-.144.251-.291.334-.443a3.47 3.47 0 0 0 .227-.472l.155-.414.127-.032.554 2.158-.284.358a2.66 2.66 0 0 1-.347.361 3.25 3.25 0 0 1-.436.322c-.139.084-.343.16-.608.227zm3.714-1.136l-1.907-7.428-1.636.417-.449-1.751 4.663-1.188.449 1.751-1.636.417 1.907 7.428-1.39.355zm6.358-1.62l-2.982.76-.412-1.603.796-.203-1.533-5.973-.796.203-.411-1.603 2.982-.76.412 1.603-.796.203 1.534 5.973.796-.203.411 1.603zm4.787-6.106c.381 1.484.441 2.712.181 3.684s-.807 1.565-1.639 1.777-1.602-.051-2.298-.791-1.233-1.841-1.609-3.304c-.379-1.476-.44-2.702-.185-3.68s.802-1.573 1.637-1.786 1.598.047 2.295.778 1.237 1.838 1.618 3.321zm-1.437.36c-.14-.547-.294-1.003-.461-1.37s-.339-.659-.516-.877c-.183-.22-.364-.366-.542-.436a.81.81 0 0 0-.509-.045c-.171.044-.313.133-.426.27s-.201.35-.263.642c-.053.268-.064.607-.033 1.02s.116.892.256 1.439a8.4 8.4 0 0 0 .46 1.377c.162.355.334.643.515.864s.366.372.545.442a.82.82 0 0 0 .511.044c.163-.042.307-.141.431-.297s.209-.372.258-.647a4.23 4.23 0 0 0 .035-1.004c-.027-.372-.114-.845-.262-1.421zm8.179 2.809l-1.338.341-3.777-5.855 1.643 6.399-1.271.324-2.356-9.179 1.707-.435 3.116 4.808-1.35-5.258 1.272-.324 2.356 9.179z" fill="#fff"/></g></svg>