<svg width="44" height="45" viewBox="0 0 44 45" fill="none" xmlns="http://www.w3.org/2000/svg">
<g clip-path="url(#clip0_1_7493)">
<path d="M35.1683 10.5273L28.6857 4.04645L31.2798 1.45412C32.4348 0.299119 35.0803 0.069952 36.4645 1.45412L37.7607 2.75029C39.1448 4.13445 38.9175 6.77995 37.7607 7.93679L35.1683 10.5273ZM32.576 13.1215L14.426 31.2715L6 33.2148L7.94333 24.7888L26.0933 6.63879L32.576 13.1215Z" fill="#25A752"/>
<path d="M10 41.5C10 43.1569 8.65685 44.5 7 44.5C5.34315 44.5 4 43.1569 4 41.5C4 39.8431 7 36.5 7 36.5C7 36.5 10 39.8431 10 41.5Z" fill="#25A752"/>
</g>
<defs>
<clipPath id="clip0_1_7493">
<rect width="44" height="44" fill="white" transform="translate(0 0.5)"/>
</clipPath>
</defs>
</svg>
