<svg width="44" height="44" viewBox="0 0 44 44" fill="none" xmlns="http://www.w3.org/2000/svg">
<path d="M7.3335 7.33341V36.6667C7.3335 37.6392 7.7198 38.5718 8.40744 39.2595C9.09507 39.9471 10.0277 40.3334 11.0002 40.3334H33.0002C33.9726 40.3334 34.9053 39.9471 35.5929 39.2595C36.2805 38.5718 36.6668 37.6392 36.6668 36.6667V15.2937C36.6668 14.8053 36.5691 14.3217 36.3796 13.8715C36.1901 13.4213 35.9125 13.0135 35.5632 12.6721L27.4232 4.71175C26.7382 4.04195 25.8182 3.66687 24.8602 3.66675H11.0002C10.0277 3.66675 9.09507 4.05306 8.40744 4.74069C7.7198 5.42832 7.3335 6.36095 7.3335 7.33341V7.33341Z" stroke="#25A752" stroke-width="3" stroke-linecap="round" stroke-linejoin="round"/>
<path d="M25.667 3.66675V11.0001C25.667 11.9725 26.0533 12.9052 26.7409 13.5928C27.4286 14.2804 28.3612 14.6667 29.3337 14.6667H36.667" stroke="#25A752" stroke-width="3" stroke-linejoin="round"/>
</svg>
