<svg width="44" height="44" viewBox="0 0 44 44" fill="none" xmlns="http://www.w3.org/2000/svg">
<path d="M18.8571 3.64286C18.8571 1.90741 20.2616 0.5 22 0.5H28.2857C30.0241 0.5 31.4286 1.90741 31.4286 3.64286V9.92857C31.4286 11.667 30.0241 13.0714 28.2857 13.0714H22C20.2616 13.0714 18.8571 11.667 18.8571 9.92857V3.64286ZM13.5634 14.4563C15.0661 13.6705 16.9027 14.1911 17.8554 15.6937L20.9982 21.1348C21.8625 22.6375 21.3518 24.4741 19.8491 25.4268L14.408 28.5696C12.9054 29.4339 10.9804 28.9232 10.0277 27.4205L6.96929 21.9795C6.10107 20.4768 6.6167 18.5518 8.11937 17.5991L13.5634 14.4563ZM34.5714 16.2143C36.3098 16.2143 37.7143 17.6187 37.7143 19.3571V25.6429C37.7143 27.3813 36.3098 28.7857 34.5714 28.7857H28.2857C26.5473 28.7857 25.1429 27.3813 25.1429 25.6429V19.3571C25.1429 17.6187 26.5473 16.2143 28.2857 16.2143H34.5714ZM40.8571 31.9286C42.5955 31.9286 44 33.333 44 35.0714V41.3571C44 43.0955 42.5955 44.5 40.8571 44.5H34.5714C32.833 44.5 31.4286 43.0955 31.4286 41.3571V35.0714C31.4286 33.333 32.833 31.9286 34.5714 31.9286H40.8571ZM15.7143 35.0714C15.7143 33.333 17.1187 31.9286 18.8571 31.9286H25.1429C26.8813 31.9286 28.2857 33.333 28.2857 35.0714V41.3571C28.2857 43.0955 26.8813 44.5 25.1429 44.5H18.8571C17.1187 44.5 15.7143 43.0955 15.7143 41.3571V35.0714ZM9.42857 31.9286C11.167 31.9286 12.5714 33.333 12.5714 35.0714V41.3571C12.5714 43.0955 11.167 44.5 9.42857 44.5H3.14286C1.40741 44.5 0 43.0955 0 41.3571V35.0714C0 33.333 1.40741 31.9286 3.14286 31.9286H9.42857Z" fill="#25A752"/>
</svg>
