<svg width="44" height="44" viewBox="0 0 44 44" fill="none" xmlns="http://www.w3.org/2000/svg">
<path d="M24.8307 19.1695C23.329 17.6684 21.2927 16.8252 19.1694 16.8252C17.0461 16.8252 15.0098 17.6684 13.5081 19.1695L7.84489 24.8308C6.34317 26.3326 5.49951 28.3693 5.49951 30.4931C5.49951 32.6168 6.34317 34.6536 7.84489 36.1553C9.34661 37.6571 11.3834 38.5007 13.5071 38.5007C15.6309 38.5007 17.6677 37.6571 19.1694 36.1553L22.0001 33.3247" stroke="#25A752" stroke-width="3" stroke-linecap="round" stroke-linejoin="round"/>
<path d="M19.1694 24.8307C20.6711 26.3318 22.7075 27.175 24.8308 27.175C26.954 27.175 28.9904 26.3318 30.4921 24.8307L36.1553 19.1694C37.657 17.6677 38.5006 15.6309 38.5006 13.5071C38.5006 11.3834 37.657 9.34661 36.1553 7.84489C34.6535 6.34317 32.6168 5.49951 30.493 5.49951C28.3693 5.49951 26.3325 6.34317 24.8308 7.84489L22.0001 10.6756" stroke="#25A752" stroke-width="3" stroke-linecap="round" stroke-linejoin="round"/>
</svg>
