<svg width="28" height="21" viewBox="0 0 28 21" fill="none" xmlns="http://www.w3.org/2000/svg">
<g clip-path="url(#clip0_1_816)">
<path d="M14.0268 18.3858C14.4107 15.9348 16.1817 13.3846 16.1817 10.4441C16.1817 7.50362 14.8738 2.34519 14.0268 0.000213821V0H14.0474V0.000213821C13.2063 2.34519 11.8984 7.50362 11.8984 10.4441C11.8984 13.3846 13.6693 15.9348 14.0474 18.386V18.3863C14.04 18.3863 14.04 18.386 14.0268 18.3858V18.386V18.3858Z" fill="#0C9246"/>
<path d="M13.6021 19.2798C11.7889 18.9873 9.90197 17.5686 7.72674 17.5686C5.5513 17.5686 1.73509 18.6163 0.000205482 19.2798H0V19.3012H0.000205482C1.73509 19.9523 5.5513 21 7.72674 21C9.90218 21 11.7889 19.5813 13.6021 19.3012H13.6023L13.6021 19.2798H13.6023H13.6021Z" fill="#0C9246"/>
<path d="M14.3982 19.2798C16.2113 18.9873 18.0983 17.5686 20.2735 17.5686C22.4487 17.5686 26.2652 18.6163 28 19.2798H28.0002V19.3012H28C26.2652 19.9523 22.4489 21 20.2735 21C18.0981 21 16.2113 19.5813 14.3982 19.3012H14.3979L14.3982 19.2798H14.3979H14.3982Z" fill="#0C9246"/>
<path d="M13.5957 18.7264C12.1923 16.7205 11.7114 13.6141 9.71333 11.5349C7.71523 9.45572 3.28504 6.77056 1.102 5.72583C2.10598 7.99747 4.68642 12.6074 6.68453 14.6866C8.68284 16.7656 11.6681 17.266 13.5957 18.7264L13.5959 18.7266C13.5959 18.7266 13.5959 18.7266 13.5957 18.7264C13.5959 18.7266 13.5959 18.7266 13.5959 18.7266L13.5957 18.7264Z" fill="#0C9246"/>
<path d="M14.3962 18.7264C15.7996 16.7205 16.2805 13.6141 18.2786 11.5349C20.2767 9.45572 24.7069 6.77056 26.8899 5.72583C25.8859 7.99747 23.3055 12.6074 21.3074 14.6866C19.3093 16.7656 16.3238 17.266 14.3962 18.7264L14.396 18.7266C14.3962 18.7266 14.3962 18.7266 14.3962 18.7264C14.396 18.7266 14.396 18.7266 14.396 18.7266L14.3962 18.7264Z" fill="#0C9246"/>
</g>
<defs>
<clipPath id="clip0_1_816">
<rect width="28" height="21" fill="white"/>
</clipPath>
</defs>
</svg>
