<svg width="42" height="27" viewBox="0 0 42 27" fill="none" xmlns="http://www.w3.org/2000/svg">
<g clip-path="url(#clip0_1_7343)">
<rect width="42" height="27" rx="4" fill="#016FD0"/>
<path d="M5.73803 8.63892L4.00635 12.52H5.13376L5.45328 11.7428H7.31077L7.62864 12.52H8.78088L7.05086 8.63892H5.73803ZM6.37871 9.54217L6.9449 10.9002H5.81087L6.37871 9.54217Z" fill="white"/>
<path d="M8.90063 12.5193V8.63818L10.5028 8.64392L11.4346 11.1462L12.3441 8.63818H13.9334V12.5193H12.9269V9.65953L11.8599 12.5193H10.9771L9.90719 9.65953V12.5193H8.90063Z" fill="white"/>
<path d="M14.6213 12.5196V8.63843H17.9059V9.50658H15.6385V10.1704H17.8529V10.9875H15.6385V11.6769H17.9059V12.5196H14.6213Z" fill="white"/>
<path d="M18.4897 8.63892V12.52H19.4963V11.1412H19.9201L21.127 12.52H22.3571L21.0326 11.0901C21.5762 11.0459 22.1369 10.5962 22.1369 9.89804C22.1369 9.08132 21.4719 8.63892 20.7297 8.63892H18.4897ZM19.4963 9.50706H20.6469C20.9229 9.50706 21.1237 9.71518 21.1237 9.91559C21.1237 10.1734 20.8635 10.3241 20.6618 10.3241H19.4963V9.50706Z" fill="white"/>
<path d="M23.5749 12.5193H22.5471V8.63818H23.5749V12.5193Z" fill="white"/>
<path d="M26.0121 12.5196H25.7902C24.7169 12.5196 24.0652 11.7044 24.0652 10.5949C24.0652 9.4581 24.7096 8.63843 26.0651 8.63843H27.1776V9.55764H26.0244C25.4741 9.55764 25.085 9.97158 25.085 10.6045C25.085 11.3562 25.53 11.6718 26.171 11.6718H26.4359L26.0121 12.5196Z" fill="white"/>
<path d="M28.2024 8.63892L26.4707 12.52H27.5981L27.9176 11.7428H29.7751L30.093 12.52H31.2452L29.5152 8.63892H28.2024ZM28.8431 9.54217L29.4093 10.9002H28.2752L28.8431 9.54217Z" fill="white"/>
<path d="M31.3623 12.5196V8.63843H32.642L34.276 11.0769V8.63843H35.2826V12.5196H34.0443L32.3689 10.0172V12.5196H31.3623Z" fill="white"/>
<path d="M11.3374 19.3113V15.4302H14.622V16.2983H12.3546V16.9622H14.569V17.7793H12.3546V18.4687H14.622V19.3113H11.3374Z" fill="white"/>
<path d="M27.4319 19.3115V15.4304H30.7164V16.2986H28.449V16.9624H30.6529V17.7795H28.449V18.4689H30.7164V19.3115H27.4319Z" fill="white"/>
<path d="M14.749 19.3115L16.3483 17.3949L14.7109 15.4304H15.9791L16.9542 16.6449L17.9326 15.4304H19.1511L17.5353 17.371L19.1375 19.3115H17.8695L16.9227 18.1162L15.9989 19.3115H14.749Z" fill="white"/>
<path d="M19.2571 15.4309V19.312H20.2901V18.0864H21.3497C22.2462 18.0864 22.9257 17.6279 22.9257 16.7363C22.9257 15.9977 22.3928 15.4309 21.4805 15.4309H19.2571ZM20.2901 16.3086H21.406C21.6956 16.3086 21.9026 16.4797 21.9026 16.7555C21.9026 17.0145 21.6966 17.2023 21.4026 17.2023H20.2901V16.3086Z" fill="white"/>
<path d="M23.3625 15.4302V19.3113H24.3691V17.9325H24.7929L25.9998 19.3113H27.2299L25.9054 17.8814C26.449 17.8372 27.0097 17.3875 27.0097 16.6893C27.0097 15.8726 26.3447 15.4302 25.6025 15.4302H23.3625ZM24.3691 16.2983H25.5197C25.7957 16.2983 25.9965 16.5064 25.9965 16.7069C25.9965 16.9647 25.7364 17.1154 25.5346 17.1154H24.3691V16.2983Z" fill="white"/>
<path d="M31.1825 19.3113V18.4687H33.1969C33.495 18.4687 33.6241 18.3134 33.6241 18.1431C33.6241 17.98 33.4954 17.815 33.1969 17.815H32.2866C31.4954 17.815 31.0547 17.3503 31.0547 16.6526C31.0547 16.0303 31.4582 15.4302 32.6341 15.4302H34.5942L34.1704 16.3034H32.4751C32.1511 16.3034 32.0513 16.4673 32.0513 16.6239C32.0513 16.7848 32.1746 16.9622 32.4222 16.9622H33.3757C34.2578 16.9622 34.6406 17.4445 34.6406 18.0761C34.6406 18.7551 34.214 19.3113 33.3277 19.3113H31.1825Z" fill="white"/>
<path d="M34.8766 19.3115V18.4689H36.891C37.1891 18.4689 37.3182 18.3136 37.3182 18.1433C37.3182 17.9802 37.1895 17.8152 36.891 17.8152H35.9807C35.1895 17.8152 34.7488 17.3505 34.7488 16.6528C34.7488 16.0305 35.1523 15.4304 36.3281 15.4304H38.2883L37.8645 16.3037H36.1692C35.8452 16.3037 35.7454 16.4676 35.7454 16.6241C35.7454 16.785 35.8687 16.9624 36.1162 16.9624H37.0698C37.9519 16.9624 38.3346 17.4447 38.3346 18.0763C38.3346 18.7554 37.9081 19.3115 37.0218 19.3115H34.8766Z" fill="white"/>
</g>
<defs>
<clipPath id="clip0_1_7343">
<rect width="42" height="27" fill="white"/>
</clipPath>
</defs>
</svg>
