<svg width="42" height="27" viewBox="0 0 42 27" fill="none" xmlns="http://www.w3.org/2000/svg">
<rect x="0.5" y="0.5" width="41" height="26" rx="3.5" fill="white" stroke="#B3B3B3"/>
<path d="M22.0393 14.1694C23.7885 14.1694 25.2065 12.8014 25.2065 11.114C25.2065 9.42654 23.7885 8.05859 22.0393 8.05859C20.2901 8.05859 18.8721 9.42654 18.8721 11.114C18.8721 12.8014 20.2901 14.1694 22.0393 14.1694Z" fill="#EF9122"/>
<path d="M18.8721 11.114C18.8721 9.41002 20.273 8.05859 22.0393 8.05859C23.8056 8.05859 25.2065 9.41002 25.2065 11.114C25.2065 12.818 23.8056 14.1694 22.0393 14.1694" fill="#F26E21"/>
<path d="M19.8455 8.93996C21.0636 7.76481 23.0736 7.76481 24.2917 8.93996C25.5099 10.1151 25.5099 12.0541 24.2917 13.2293" fill="#F44500"/>
<path d="M3.70543 8.23503H2V13.9933H3.70543C4.61905 13.9933 5.28904 13.7582 5.83721 13.3469C6.5072 12.8181 6.93355 11.9955 6.93355 11.1142C6.93355 9.41018 5.65448 8.23503 3.70543 8.23503ZM5.10631 12.5831C4.74086 12.8769 4.2536 13.0532 3.5227 13.0532H3.15725V9.23391H3.46179C4.19269 9.23391 4.67996 9.35142 5.0454 9.70397C5.47176 10.0565 5.71539 10.5853 5.71539 11.1142C5.7763 11.643 5.53267 12.2305 5.10631 12.5831ZM7.48173 8.23503H8.63898V13.9933H7.48173V8.23503ZM11.5626 10.4678C10.8317 10.2328 10.6489 10.0565 10.6489 9.76273C10.6489 9.41018 11.0144 9.11639 11.5017 9.11639C11.8671 9.11639 12.1716 9.23391 12.4762 9.58645L13.0853 8.8226C12.598 8.4113 11.9889 8.17627 11.3189 8.17627C10.2835 8.17627 9.43078 8.88136 9.43078 9.82148C9.43078 10.6441 9.79623 10.9966 10.8926 11.4079C11.3798 11.5842 11.5626 11.643 11.6844 11.7605C11.928 11.878 12.0498 12.113 12.0498 12.3481C12.0498 12.8181 11.6844 13.1707 11.1362 13.1707C10.588 13.1707 10.1008 12.8769 9.85714 12.4068L9.12624 13.1119C9.67442 13.8758 10.3444 14.2283 11.1971 14.2283C12.4153 14.2283 13.268 13.4645 13.268 12.3481C13.268 11.3492 12.9025 10.9379 11.5626 10.4678Z" fill="#595A5B"/>
<path d="M13.6335 11.1141C13.6335 12.8181 15.0344 14.1108 16.8008 14.1108C17.288 14.1108 17.7144 13.9933 18.2626 13.7582V12.4068C17.7753 12.8769 17.3489 13.0531 16.8617 13.0531C15.7044 13.0531 14.8517 12.2305 14.8517 11.0554C14.8517 9.93899 15.7044 9.05763 16.8008 9.05763C17.3489 9.05763 17.7753 9.23391 18.2626 9.70396V8.35254C17.7753 8.11752 17.3489 8 16.8008 8C15.0953 8.11751 13.6335 9.46893 13.6335 11.1141Z" fill="#3B3D3F"/>
<path d="M27.8256 12.1129L26.242 8.23486H24.9629L27.4601 14.1694H28.1301L30.7492 8.23486H29.4701L27.8256 12.1129ZM31.2364 13.9931H34.5864V13.053H32.4546V11.4665H34.5255V10.4676H32.4546V9.23374H34.5864V8.23486H31.2364V13.9931Z" fill="black"/>
<path d="M37.8748 11.5842C38.7884 11.4079 39.2757 10.8204 39.2757 9.939C39.2757 8.88136 38.4839 8.23503 37.1439 8.23503H35.3776V13.9933H36.5349V11.7017H36.7176L38.3621 13.9933H39.763L37.8748 11.5842ZM36.9003 10.8791H36.5349V9.11639H36.9003C37.6312 9.11639 38.0576 9.41018 38.0576 9.99776C38.0576 10.5853 37.6312 10.8791 36.9003 10.8791ZM3.70542 8.23503H2V13.9933H3.70542C4.61905 13.9933 5.28903 13.7582 5.83721 13.3469C6.50719 12.8181 6.93355 11.9955 6.93355 11.1142C6.93355 9.41018 5.65448 8.23503 3.70542 8.23503ZM5.10631 12.5831C4.74086 12.8769 4.2536 13.0532 3.5227 13.0532H3.15725V9.23391H3.46179C4.19269 9.23391 4.67995 9.35142 5.0454 9.70397C5.47176 10.0565 5.71539 10.5853 5.71539 11.1142C5.7763 11.643 5.53267 12.2305 5.10631 12.5831ZM7.48172 8.23503H8.63897V13.9933H7.48172V8.23503ZM11.5626 10.4678C10.8317 10.2328 10.6489 10.0565 10.6489 9.76273C10.6489 9.41018 11.0144 9.11639 11.5017 9.11639C11.8671 9.11639 12.1716 9.23391 12.4762 9.58645L13.0853 8.8226C12.598 8.4113 11.9889 8.17627 11.3189 8.17627C10.2835 8.17627 9.43078 8.88136 9.43078 9.82148C9.43078 10.6441 9.79623 10.9966 10.8926 11.4079C11.3798 11.5842 11.5626 11.643 11.6844 11.7605C11.928 11.878 12.0498 12.113 12.0498 12.3481C12.0498 12.8181 11.6844 13.1707 11.1362 13.1707C10.588 13.1707 10.1008 12.8769 9.85714 12.4068L9.12624 13.1119C9.67441 13.8758 10.3444 14.2283 11.1971 14.2283C12.4153 14.2283 13.268 13.4645 13.268 12.3481C13.268 11.3492 12.9025 10.9379 11.5626 10.4678ZM16.8616 14.1108C17.3488 14.1108 17.7752 13.9933 18.3234 13.7582V12.4068C17.8361 12.8769 17.4097 13.0532 16.9225 13.0532C15.7652 13.0532 14.9125 12.2305 14.9125 11.0554C14.9125 10.4678 15.1561 9.99776 15.5216 9.58645L14.7298 8.8226C14.1207 9.35142 13.6943 10.174 13.6943 11.0554C13.6334 12.8181 15.0343 14.1108 16.8616 14.1108Z" fill="#595A5B"/>
<path d="M37.8749 11.5843C38.7885 11.408 39.2758 10.8204 39.2758 9.93907C39.2758 8.88144 38.484 8.23511 37.144 8.23511H35.3777V13.9933H36.5349V11.7018H36.7177L38.3622 13.9933H39.7631L37.8749 11.5843ZM36.9004 10.8792H36.5349V9.11647H36.9004C37.6313 9.11647 38.0576 9.41025 38.0576 9.99783C38.0576 10.5854 37.6313 10.8792 36.9004 10.8792Z" fill="black"/>
<path d="M10.5881 19.34V16.1084L12.9026 18.3999V16.2847H13.3899V19.5163L11.0754 17.2248V19.34H10.5881ZM15.8262 16.7547H14.5472V17.4598H15.7653V17.9299H14.5472V18.9287H15.8262V19.34H14.0599V16.2847H15.8262V16.7547ZM17.3489 16.7547V19.34H16.8617V16.7547H16.1308V16.3434H18.0798V16.7547H17.3489ZM18.8107 16.3434L19.6025 18.3999L20.4552 16.2259L21.247 18.3999L22.0998 16.3434H22.7088L21.308 19.5751L20.5161 17.4011L19.6634 19.5751L18.3235 16.3434H18.8107ZM22.7697 17.8124C22.7748 17.3931 22.9497 16.9924 23.257 16.696C23.5643 16.3995 23.9797 16.2308 24.4143 16.2259C24.8488 16.2308 25.2642 16.3995 25.5715 16.696C25.8788 16.9924 26.0537 17.3931 26.0588 17.8124C26.0537 18.2316 25.8788 18.6323 25.5715 18.9287C25.2642 19.2252 24.8488 19.3939 24.4143 19.3988C23.9879 19.3988 23.6225 19.2813 23.3179 18.9875C22.9525 18.6937 22.7697 18.3412 22.7697 17.8124ZM23.257 17.8124C23.257 18.1649 23.3788 18.3999 23.6225 18.635C23.8661 18.87 24.1097 18.9875 24.4143 18.9875C24.7188 18.9875 25.0233 18.87 25.267 18.635C25.5106 18.3999 25.6324 18.1649 25.6324 17.8124C25.6324 17.4598 25.5106 17.2248 25.267 16.9898C25.0233 16.7547 24.7797 16.6372 24.4143 16.6372C24.1097 16.6372 23.8052 16.7547 23.5615 16.9898C23.3788 17.2248 23.257 17.5186 23.257 17.8124ZM27.7642 18.0474L28.7387 19.34H28.1297L27.216 18.1061H27.1551V19.34H26.6679V16.2847H27.216C27.6424 16.2847 27.9469 16.3434 28.1297 16.5197C28.3124 16.696 28.4342 16.931 28.4342 17.166C28.4342 17.4011 28.3733 17.5773 28.2515 17.6948C28.1297 17.9299 27.9469 18.0474 27.7642 18.0474ZM27.1551 17.6948H27.2769C27.7033 17.6948 27.9469 17.5186 27.9469 17.2248C27.9469 16.931 27.7033 16.7547 27.2769 16.7547H27.0942V17.6948H27.1551ZM29.6524 17.5186L30.8705 16.2847H31.4796L30.0787 17.6361L31.4796 19.2813H30.8705L29.7133 17.9299L29.5914 18.0474V19.2813H29.1042V16.2259H29.5914V17.5186H29.6524Z" fill="#F26E21"/>
<path d="M33.5506 13.0531H32.4542V11.9955L31.2361 10.8203V13.9932H34.5251L33.5506 13.0531Z" fill="#3B3D3F"/>
<path d="M29.165 8.82244L27.8251 12.1129L26.2415 8.23486H24.9624L27.4596 14.1694H28.1296L30.0787 9.7038L29.165 8.82244Z" fill="#3B3D3F"/>
</svg>
