<svg width="42" height="27" viewBox="0 0 42 27" fill="none" xmlns="http://www.w3.org/2000/svg">
<g clip-path="url(#clip0_1_7341)">
<rect width="42" height="27" rx="4" fill="#22154A"/>
<path d="M36.6079 13.4358C36.6094 18.4571 32.3909 22.5285 27.1857 22.5299C21.9805 22.5311 17.7602 18.4618 17.7588 13.4404C17.7588 13.4387 17.7588 13.4374 17.7588 13.4358C17.7574 8.41449 21.9759 4.34289 27.1808 4.34155C32.3861 4.34022 36.6065 8.40977 36.6079 13.4311C36.6079 13.4327 36.6079 13.4341 36.6079 13.4358Z" fill="#FF9900"/>
<path d="M14.4806 4.34404C9.30626 4.37575 5.1167 8.43678 5.1167 13.4359C5.1167 18.4545 9.33892 22.5276 14.5413 22.5276C16.983 22.5276 19.2086 21.63 20.8833 20.1587C20.8832 20.1587 20.883 20.1585 20.8826 20.1583H20.8846C21.2275 19.8569 21.5474 19.5316 21.8414 19.1848H19.9105C19.6526 18.8843 19.4183 18.5712 19.2078 18.2482H22.5379C22.7405 17.9356 22.9238 17.6109 23.0866 17.2747H18.658C18.5071 16.9625 18.376 16.6433 18.2641 16.3195H23.4809C23.7953 15.4132 23.9659 14.4436 23.9659 13.4358C23.9659 12.7676 23.8908 12.1161 23.7487 11.4888H17.9875C18.0589 11.166 18.1489 10.8471 18.2564 10.5337H23.475C23.3584 10.2003 23.2228 9.87528 23.0687 9.56027H18.6575C18.8166 9.23232 18.9969 8.9133 19.1982 8.60527H22.5259C22.3045 8.26491 22.0594 7.93973 21.7944 7.63169H19.9391C20.226 7.30601 20.5418 6.9993 20.8846 6.71333C19.2097 5.24189 16.9835 4.34404 14.5413 4.34404C14.521 4.34404 14.5009 4.34394 14.4806 4.34404Z" fill="#CC0000"/>
<path d="M35.6624 18.1887C35.7136 18.1887 35.7635 18.2015 35.8122 18.2268C35.8612 18.252 35.8988 18.2885 35.9261 18.3358C35.9533 18.3826 35.9669 18.4319 35.9669 18.483C35.9669 18.5335 35.9534 18.5823 35.9266 18.6291C35.8999 18.6758 35.8622 18.7122 35.8137 18.7382C35.7658 18.7637 35.715 18.7767 35.6623 18.7767C35.6095 18.7767 35.5589 18.7637 35.5106 18.7382C35.4622 18.7121 35.4248 18.6759 35.3975 18.6291C35.3707 18.5823 35.3574 18.5335 35.3574 18.483C35.3574 18.4319 35.3709 18.3826 35.3983 18.3358C35.4257 18.2885 35.4636 18.2523 35.5122 18.2268C35.5613 18.2015 35.6112 18.1887 35.6624 18.1887ZM35.6624 18.2375C35.6197 18.2375 35.578 18.2481 35.5373 18.2694C35.4969 18.2906 35.4653 18.3207 35.4425 18.3605C35.4194 18.3997 35.4079 18.4403 35.4079 18.483C35.4079 18.5253 35.4192 18.5661 35.4415 18.6049C35.4642 18.6436 35.4957 18.674 35.5359 18.6957C35.5764 18.7174 35.6184 18.728 35.6623 18.728C35.7063 18.728 35.7484 18.7174 35.7887 18.6957C35.8289 18.674 35.8603 18.6436 35.8828 18.6049C35.905 18.5661 35.9161 18.5254 35.9161 18.483C35.9161 18.4403 35.9048 18.3996 35.8819 18.3605C35.8593 18.3207 35.8276 18.2906 35.7868 18.2694C35.7465 18.248 35.705 18.2375 35.6624 18.2375ZM35.5288 18.6453V18.3291H35.6417C35.68 18.3291 35.7079 18.332 35.7251 18.3381C35.7424 18.344 35.7561 18.3539 35.7664 18.3686C35.7765 18.3831 35.7817 18.3985 35.7817 18.4149C35.7817 18.4381 35.7732 18.4582 35.756 18.4752C35.7392 18.4922 35.7163 18.502 35.688 18.504C35.6996 18.5087 35.7089 18.5145 35.7161 18.5209C35.7294 18.5332 35.7453 18.554 35.7645 18.5835L35.8044 18.6453H35.7399L35.711 18.5956C35.6881 18.5564 35.6697 18.532 35.6556 18.5219C35.6459 18.5148 35.6317 18.5111 35.6133 18.5111H35.5822V18.6456H35.529L35.5288 18.6453ZM35.5817 18.4673H35.646C35.6766 18.4673 35.6974 18.4628 35.7085 18.4541C35.7198 18.445 35.7254 18.4335 35.7254 18.419C35.7254 18.4095 35.7229 18.4011 35.7175 18.3939C35.7119 18.3865 35.7045 18.3811 35.6948 18.3773C35.6853 18.3737 35.6677 18.3717 35.6419 18.3717H35.582V18.4673" fill="#FCB340"/>
<path d="M17.6685 16.0443L17.794 15.2214C17.7254 15.2214 17.6246 15.25 17.5354 15.25C17.1861 15.25 17.1425 15.0699 17.17 14.9384L17.5142 13.2833H18.0452L18.1546 12.3492H17.6542L17.7561 11.7832H16.7092C16.6871 11.8045 16.1169 14.9664 16.1169 15.3516C16.1169 15.9216 16.4486 16.1753 16.9164 16.1713C17.2825 16.1683 17.5679 16.0705 17.6685 16.0443Z" fill="#000066"/>
<path d="M17.9868 14.4756C17.9868 15.8436 18.9227 16.1686 19.7203 16.1686C20.4564 16.1686 20.8424 16.004 20.8424 16.004L21.0192 15.0702C21.0192 15.0702 20.3972 15.3142 19.8916 15.3142C18.814 15.3142 19.0029 14.5391 19.0029 14.5391L21.0732 14.5452C21.0732 14.5452 21.2049 13.9181 21.2049 13.6625C21.2049 13.0246 20.8447 12.2415 19.7429 12.2415C18.7339 12.2417 17.9868 13.2904 17.9868 14.4756ZM19.7468 13.1083C20.3131 13.1083 20.2086 13.7223 20.2086 13.7721H19.0945C19.0945 13.7085 19.1997 13.1083 19.7468 13.1083Z" fill="#000066"/>
<path d="M26.1009 16.0439L26.2806 14.9887C26.2806 14.9887 25.7879 15.2268 25.4502 15.2268C24.7383 15.2268 24.4527 14.7025 24.4527 14.139C24.4527 12.9963 25.0652 12.3674 25.747 12.3674C26.2584 12.3674 26.6686 12.6444 26.6686 12.6444L26.8324 11.619C26.8324 11.619 26.348 11.2815 25.8266 11.2796C24.2583 11.2736 23.3608 12.327 23.3608 14.1481C23.3608 15.3551 24.0254 16.1765 25.2229 16.1765C25.5615 16.1765 26.1009 16.0439 26.1009 16.0439Z" fill="#000066"/>
<path d="M12.149 12.2563C11.4609 12.2563 10.9335 12.4697 10.9335 12.4697L10.7878 13.3036C10.7878 13.3036 11.2232 13.133 11.8814 13.133C12.255 13.133 12.5284 13.1735 12.5284 13.4664C12.5284 13.6444 12.495 13.71 12.495 13.71C12.495 13.71 12.2002 13.6863 12.0636 13.6863C11.084 13.6863 10.2842 14.0436 10.2842 15.1208C10.2842 15.9697 10.8823 16.1644 11.253 16.1644C11.9611 16.1644 12.2413 15.7331 12.2575 15.7319L12.2493 16.0898C12.2493 16.0898 13.1328 16.0898 13.1329 16.0898L13.5271 13.424C13.5271 12.2927 12.5043 12.2563 12.149 12.2563ZM12.302 14.421C12.3212 14.5838 12.2583 15.3533 11.654 15.3533C11.3423 15.3533 11.2614 15.1235 11.2614 14.9878C11.2614 14.7227 11.4106 14.4047 12.1458 14.4047C12.3171 14.4047 12.2731 14.4166 12.302 14.421Z" fill="#000066"/>
<path d="M14.4672 16.1446C14.6932 16.1446 15.9852 16.2001 15.9852 14.9139C15.9852 13.7112 14.7892 13.9489 14.7892 13.4656C14.7892 13.2253 14.9842 13.1496 15.3406 13.1496C15.482 13.1496 16.0264 13.193 16.0264 13.193L16.1529 12.3382C16.1529 12.3383 15.8006 12.2622 15.227 12.2622C14.4847 12.2622 13.7312 12.5481 13.7312 13.5262C13.7312 14.6346 14.9876 14.5232 14.9876 14.9901C14.9876 15.3017 14.6366 15.3274 14.366 15.3274C13.8979 15.3274 13.4765 15.1724 13.475 15.1798L13.3411 16.0259C13.3654 16.0331 13.6255 16.1446 14.4672 16.1446Z" fill="#000066"/>
<path d="M34.3776 11.481L34.1963 12.785C34.1963 12.785 33.8184 12.2817 33.2271 12.2817C32.1146 12.2817 31.5413 13.3513 31.5413 14.5798C31.5413 15.373 31.9501 16.1505 32.7856 16.1505C33.3867 16.1505 33.72 15.7461 33.72 15.7461L33.6758 16.0914H34.6521L35.4186 11.488L34.3776 11.481ZM33.9466 14.0156C33.9466 14.5269 33.6841 15.2099 33.1403 15.2099C32.779 15.2099 32.6097 14.9174 32.6097 14.4584C32.6097 13.7078 32.9591 13.2127 33.4002 13.2127C33.7612 13.2127 33.9466 13.4518 33.9466 14.0156Z" fill="#000066"/>
<path d="M6.71624 16.0951L7.3271 12.6197L7.41687 16.0951H8.10815L9.39784 12.6197L8.82655 16.0951H9.85384L10.6449 11.4856L9.01301 11.4736L8.04231 14.2958L8.01572 11.4856H6.5202L5.71777 16.0951H6.71624Z" fill="#000066"/>
<path d="M22.1768 16.1017C22.4689 14.4994 22.5729 13.234 23.4247 13.4961C23.547 12.8759 23.8386 12.3366 23.9718 12.0741C23.9718 12.0741 23.9296 12.0137 23.6664 12.0137C23.217 12.0137 22.617 12.8935 22.617 12.8935L22.7066 12.3495H21.7721L21.1462 16.1016H22.1768V16.1017Z" fill="#000066"/>
<path d="M28.2023 12.2563C27.5139 12.2563 26.9866 12.4697 26.9866 12.4697L26.8409 13.3036C26.8409 13.3036 27.2765 13.133 27.9344 13.133C28.3082 13.133 28.5814 13.1735 28.5814 13.4664C28.5814 13.6444 28.5481 13.71 28.5481 13.71C28.5481 13.71 28.2534 13.6863 28.1168 13.6863C27.1371 13.6863 26.3374 14.0436 26.3374 15.1208C26.3374 15.9697 26.9354 16.1644 27.3061 16.1644C28.0139 16.1644 28.2944 15.7331 28.3105 15.7319L28.3022 16.0898H29.186L29.5801 13.424C29.5802 12.2927 28.5574 12.2563 28.2023 12.2563ZM28.3551 14.421C28.3742 14.5838 28.3114 15.3534 27.7071 15.3534C27.3952 15.3534 27.3144 15.1235 27.3144 14.9879C27.3144 14.7227 27.4635 14.4047 28.1988 14.4047C28.3702 14.4047 28.3263 14.4166 28.3551 14.421Z" fill="#000066"/>
<path d="M30.5967 16.1017C30.7571 14.9229 31.054 13.2679 31.8445 13.496C31.9667 12.8759 31.8489 12.8775 31.5857 12.8775C31.136 12.8775 31.0364 12.8933 31.0364 12.8933L31.1262 12.3494H30.1918L29.5659 16.1016H30.5967V16.1017Z" fill="#000066"/>
<path d="M17.929 15.7507L18.0546 14.9279C17.986 14.9279 17.885 14.9562 17.796 14.9562C17.4467 14.9562 17.4082 14.7771 17.4304 14.6446L17.7126 12.9657H18.2435L18.3717 12.0555H17.8711L17.973 11.4895H16.9696C16.9474 11.5108 16.3772 14.6728 16.3772 15.0578C16.3772 15.6278 16.709 15.8817 17.1768 15.8776C17.5431 15.8746 17.8284 15.7768 17.929 15.7507Z" fill="white"/>
<path d="M18.2471 14.1818C18.2471 15.5498 19.1831 15.8748 19.9805 15.8748C20.7166 15.8748 21.0405 15.7161 21.0405 15.7161L21.2172 14.7824C21.2172 14.7824 20.6573 15.0204 20.1517 15.0204C19.0742 15.0204 19.2629 14.2454 19.2629 14.2454H21.3021C21.3021 14.2454 21.4338 13.6181 21.4338 13.3625C21.4338 12.7247 21.1047 11.9475 20.003 11.9475C18.994 11.9477 18.2471 12.9965 18.2471 14.1818ZM20.0068 12.8145C20.5731 12.8145 20.4686 13.4284 20.4686 13.4781H19.3546C19.3546 13.4146 19.4599 12.8145 20.0068 12.8145Z" fill="white"/>
<path d="M26.3616 15.7502L26.5411 14.6949C26.5411 14.6949 26.0488 14.933 25.7108 14.933C24.999 14.933 24.7135 14.4087 24.7135 13.8454C24.7135 12.7026 25.326 12.0739 26.0078 12.0739C26.5191 12.0739 26.9295 12.3508 26.9295 12.3508L27.0933 11.3254C27.0933 11.3254 26.4847 11.0879 25.9631 11.0879C24.8047 11.0879 23.6777 12.0574 23.6777 13.8781C23.6777 15.0854 24.2863 15.8828 25.4837 15.8828C25.8223 15.8829 26.3616 15.7502 26.3616 15.7502Z" fill="white"/>
<path d="M12.4103 11.9626C11.7222 11.9626 11.1948 12.176 11.1948 12.176L11.0492 13.0099C11.0492 13.0099 11.4845 12.8393 12.1426 12.8393C12.5163 12.8393 12.7896 12.8798 12.7896 13.1727C12.7896 13.3507 12.7561 13.4163 12.7561 13.4163C12.7561 13.4163 12.4614 13.3925 12.3249 13.3925C11.4571 13.3925 10.5454 13.7498 10.5454 14.827C10.5454 15.6758 11.1435 15.8706 11.5142 15.8706C12.2222 15.8706 12.5273 15.4274 12.5436 15.4261L12.5105 15.796H13.3941L13.7883 13.1301C13.7883 11.9991 12.7656 11.9626 12.4103 11.9626ZM12.6253 14.1333C12.6444 14.2961 12.5195 15.0594 11.9153 15.0594C11.6036 15.0594 11.5226 14.8298 11.5226 14.6939C11.5226 14.429 11.6718 14.1109 12.4071 14.1109C12.5782 14.1111 12.5965 14.1288 12.6253 14.1333Z" fill="white"/>
<path d="M14.7273 15.851C14.9533 15.851 16.2455 15.9064 16.2455 14.6202C16.2455 13.4177 15.0494 13.6552 15.0494 13.1721C15.0494 12.9316 15.2444 12.8559 15.6007 12.8559C15.7422 12.8559 16.2864 12.8993 16.2864 12.8993L16.413 12.0445C16.413 12.0446 16.0607 11.9685 15.4872 11.9685C14.7449 11.9685 13.9914 12.2544 13.9914 13.2325C13.9914 14.3408 15.2478 14.2295 15.2478 14.6964C15.2478 15.0081 14.8968 15.0334 14.6263 15.0334C14.1581 15.0334 13.7366 14.8785 13.7351 14.8858L13.6013 15.732C13.6256 15.7392 13.8855 15.851 14.7273 15.851Z" fill="white"/>
<path d="M34.6728 11.1956L34.4563 12.4913C34.4563 12.4913 34.0786 11.988 33.4873 11.988C32.5679 11.988 31.8015 13.0574 31.8015 14.2862C31.8015 15.0794 32.2103 15.8565 33.0459 15.8565C33.647 15.8565 33.9802 15.4522 33.9802 15.4522L33.9361 15.7975H34.9121L35.6787 11.1941L34.6728 11.1956ZM34.2068 13.7219C34.2068 14.2332 33.9444 14.9162 33.4003 14.9162C33.0392 14.9162 32.87 14.6238 32.87 14.1648C32.87 13.4143 33.2194 12.9191 33.6603 12.9191C34.0215 12.919 34.2068 13.1584 34.2068 13.7219Z" fill="white"/>
<path d="M6.97703 15.8015L7.58789 12.3261L7.67756 15.8015H8.36894L9.65864 12.3261L9.08734 15.8015H10.1146L10.9058 11.1919H9.3172L8.32789 14.0202L8.2764 11.1919H6.81206L6.00952 15.8015H6.97703Z" fill="white"/>
<path d="M22.4375 15.8078C22.7295 14.2055 22.7837 12.9043 23.4807 13.1425C23.6027 12.5223 23.7205 12.2824 23.8536 12.0199C23.8536 12.0199 23.7912 12.0073 23.6601 12.0073C23.2107 12.0073 22.8778 12.5996 22.8778 12.5996L22.9673 12.0557H22.0329L21.407 15.8078H22.4375Z" fill="white"/>
<path d="M28.6763 11.9626C27.9883 11.9626 27.4608 12.176 27.4608 12.176L27.3153 13.0099C27.3153 13.0099 27.7506 12.8393 28.4087 12.8393C28.7824 12.8393 29.0555 12.8798 29.0555 13.1727C29.0555 13.3507 29.0222 13.4163 29.0222 13.4163C29.0222 13.4163 28.7275 13.3925 28.5909 13.3925C27.7232 13.3925 26.8115 13.7498 26.8115 14.827C26.8115 15.6758 27.4095 15.8706 27.7802 15.8706C28.4882 15.8706 28.7933 15.4274 28.8095 15.4261L28.7766 15.796C28.7766 15.796 29.6599 15.796 29.6602 15.796L30.0543 13.1301C30.0544 11.9991 29.0316 11.9626 28.6763 11.9626ZM28.8916 14.1333C28.9108 14.2961 28.7857 15.0594 28.1813 15.0594C27.8697 15.0594 27.7888 14.8298 27.7888 14.6939C27.7888 14.429 27.9381 14.1109 28.6733 14.1109C28.8443 14.1111 28.8625 14.1288 28.8916 14.1333Z" fill="white"/>
<path d="M30.8622 15.8078C31.1543 14.2055 31.2085 12.9043 31.9053 13.1425C32.0275 12.5223 32.1454 12.2824 32.2784 12.0199C32.2784 12.0199 32.216 12.0073 32.085 12.0073C31.6356 12.0073 31.3026 12.5996 31.3026 12.5996L31.3921 12.0557H30.4578L29.8318 15.8078H30.8622Z" fill="white"/>
<path d="M35.6575 15.229C35.7084 15.229 35.7586 15.2416 35.807 15.2673C35.8558 15.2921 35.8938 15.3286 35.921 15.3759C35.9484 15.4229 35.9618 15.4719 35.9618 15.5231C35.9618 15.5737 35.9484 15.6225 35.9215 15.6692C35.8948 15.7159 35.8572 15.7525 35.8088 15.7783C35.7605 15.8039 35.7099 15.8169 35.6574 15.8169C35.6044 15.8169 35.5538 15.8039 35.5054 15.7783C35.4571 15.7523 35.4196 15.7159 35.3928 15.6692C35.3656 15.6225 35.3523 15.5737 35.3523 15.5231C35.3523 15.4719 35.3658 15.4229 35.3931 15.3759C35.4206 15.3286 35.4587 15.2923 35.5073 15.2673C35.5563 15.2416 35.6065 15.229 35.6575 15.229ZM35.6575 15.2774C35.6148 15.2774 35.5731 15.2881 35.5324 15.3096C35.4917 15.3305 35.4602 15.3608 35.4373 15.4004C35.4145 15.4395 35.403 15.4804 35.403 15.5229C35.403 15.5654 35.4141 15.606 35.4363 15.6448C35.459 15.6835 35.4905 15.7138 35.5311 15.7357C35.5713 15.757 35.6133 15.7678 35.6575 15.7678C35.7013 15.7678 35.7436 15.757 35.7838 15.7357C35.824 15.7138 35.8555 15.6835 35.8779 15.6448C35.9003 15.6057 35.9113 15.5654 35.9113 15.5229C35.9113 15.4804 35.8999 15.4395 35.8771 15.4004C35.8545 15.3608 35.8229 15.3305 35.782 15.3096C35.7416 15.2882 35.7002 15.2774 35.6575 15.2774ZM35.524 15.6854V15.3691H35.6368C35.6752 15.3691 35.7033 15.372 35.7203 15.3781C35.7376 15.3837 35.7511 15.3939 35.7616 15.4086C35.7719 15.4231 35.7771 15.4384 35.7771 15.4549C35.7771 15.4779 35.7684 15.4982 35.7512 15.5152C35.7344 15.5322 35.7117 15.5421 35.6834 15.5439C35.6947 15.5486 35.704 15.5543 35.7113 15.5606C35.7244 15.5732 35.7405 15.5941 35.7597 15.6233L35.7998 15.6853H35.735L35.7062 15.6356C35.6832 15.5963 35.6648 15.5718 35.6508 15.5619C35.6411 15.5546 35.6269 15.551 35.6083 15.551H35.5774V15.6855L35.524 15.6854ZM35.5769 15.5074H35.6412C35.6719 15.5074 35.6927 15.503 35.7037 15.4942C35.7149 15.4855 35.7208 15.4737 35.7208 15.4591C35.7208 15.4497 35.7181 15.4413 35.7128 15.4342C35.7073 15.4266 35.6998 15.4212 35.6901 15.4174C35.6804 15.4138 35.6631 15.412 35.6371 15.412H35.577V15.5074" fill="white"/>
</g>
<defs>
<clipPath id="clip0_1_7341">
<rect width="42" height="27" fill="white"/>
</clipPath>
</defs>
</svg>
