<svg width="42" height="27" viewBox="0 0 42 27" fill="none" xmlns="http://www.w3.org/2000/svg">
<g clip-path="url(#clip0_1_7340)">
<rect width="41.9997" height="27" rx="4" fill="white"/>
<path d="M0 4C0 1.79086 1.79086 0 4 0H37.9997C40.2088 0 41.9997 1.79086 41.9997 4V5.67227H0V4Z" fill="#1E5C99"/>
<path d="M42 23C42 25.2091 40.2091 27 38 27L4.00029 27C1.79115 27 0.000297705 25.2091 0.0002979 23L0.000298048 21.3277L42 21.3277L42 23Z" fill="#E6A839"/>
<path d="M6.42529 8.34989H8.62705L9.72126 15.8694L13.4376 8.34989H15.8195L10.7554 18.4095H7.99988L6.42529 8.34989Z" fill="#105EA6"/>
<path d="M17.0137 8.34989H19.3223L17.5742 18.4095H15.2657L17.0137 8.34989Z" fill="#105EA6"/>
<path d="M27.7623 8.66657L27.3887 10.7957C26.935 10.5442 26.488 10.3578 26.0476 10.2365C25.6073 10.1107 25.178 10.0478 24.7599 10.0478C24.1817 10.0478 23.7302 10.1489 23.4055 10.351C23.0853 10.5532 22.9251 10.8339 22.9251 11.1933C22.9251 11.4224 22.9963 11.602 23.1386 11.7323C23.281 11.8581 23.5745 11.9816 24.0193 12.1029L24.9668 12.3657C25.763 12.5903 26.3456 12.9159 26.7148 13.3427C27.084 13.7649 27.2686 14.3129 27.2686 14.9867C27.2686 16.0782 26.8994 16.9542 26.1611 17.6145C25.4227 18.2748 24.4308 18.6049 23.1853 18.6049C22.6071 18.6049 22.0289 18.5443 21.4506 18.423C20.8768 18.3017 20.3164 18.1221 19.7693 17.884L20.1362 15.6942C20.6656 16.0401 21.1815 16.2983 21.6841 16.469C22.1868 16.6397 22.6827 16.7251 23.172 16.7251C23.7013 16.7251 24.1305 16.6038 24.4597 16.3612C24.7933 16.1187 24.9601 15.8087 24.9601 15.4314C24.9601 15.1843 24.8845 14.9934 24.7332 14.8587C24.5865 14.7194 24.2618 14.5779 23.7591 14.4342L22.8184 14.1714C22.12 13.9783 21.6019 13.6728 21.2638 13.2551C20.9258 12.8373 20.7567 12.296 20.7567 11.6312C20.7567 10.5846 21.1126 9.74688 21.8243 9.11801C22.5404 8.48465 23.5034 8.16797 24.7132 8.16797C25.1981 8.16797 25.694 8.21064 26.2011 8.29599C26.7126 8.37684 27.233 8.50037 27.7623 8.66657Z" fill="#105EA6"/>
<path d="M34.4877 16.5768H30.9115L30.0241 18.4095H27.6489L32.7196 8.34989H35.3617L36.9497 18.4095H34.7479L34.4877 16.5768ZM31.7855 14.7509H34.1875L33.647 10.8766L31.7855 14.7509Z" fill="#105EA6"/>
<path d="M7.24668 7.97379L4.60436 8.19242C7.60776 8.49869 8.77396 9.87338 9.16149 12.0444C9.08612 11.3613 8.79712 9.0707 8.70517 8.42764C8.61321 7.78457 7.40915 7.97516 7.24668 7.97379Z" fill="#F4A637"/>
<path d="M38.198 9.59527C38.22 9.6034 38.2413 9.62076 38.2619 9.64734C38.2824 9.67393 38.3031 9.71049 38.3241 9.75702L38.4277 9.98303H38.3179L38.2215 9.77087C38.1969 9.71548 38.1728 9.67873 38.1492 9.66064C38.1261 9.64254 38.0943 9.6335 38.054 9.6335H37.943V9.98303H37.8411V9.15601H38.0708C38.1571 9.15601 38.2213 9.17576 38.2635 9.21528C38.3058 9.25479 38.3269 9.31443 38.3269 9.3942C38.3269 9.44627 38.3158 9.48947 38.2938 9.52382C38.2721 9.55816 38.2402 9.58198 38.198 9.59527ZM37.943 9.24796V9.54154H38.0708C38.1201 9.54154 38.1573 9.52917 38.1823 9.50443C38.2073 9.47932 38.2198 9.44257 38.2198 9.3942C38.2198 9.34582 38.2073 9.30945 38.1823 9.28507C38.1573 9.26033 38.1201 9.24796 38.0708 9.24796H37.943Z" fill="#105EA6"/>
<path d="M38.7287 9.5293C38.7287 9.87258 38.447 10.152 38.0982 10.152C37.7493 10.152 37.4677 9.87258 37.4677 9.5293C37.4677 9.18603 37.7493 8.90662 38.0982 8.90662C38.447 8.90662 38.7287 9.18603 38.7287 9.5293Z" stroke="#105EA6" stroke-width="0.115983"/>
</g>
<defs>
<clipPath id="clip0_1_7340">
<rect width="42" height="27" fill="white"/>
</clipPath>
</defs>
</svg>
